<svg xmlns="http://www.w3.org/2000/svg" xmlns:xlink="http://www.w3.org/1999/xlink" width="150" zoomAndPan="magnify" viewBox="0 0 112.5 44.999999" height="60" preserveAspectRatio="xMidYMid meet" version="1.0"><defs><g/><clipPath id="80a9b73639"><path d="M 0 0.0976562 L 112.003906 0.0976562 L 112.003906 44.898438 L 0 44.898438 Z M 0 0.0976562 " clip-rule="nonzero"/></clipPath></defs><g clip-path="url(#80a9b73639)"><path fill="#ffffff" d="M 0 0.0976562 L 112.003906 0.0976562 L 112.003906 44.902344 L 0 44.902344 Z M 0 0.0976562 " fill-opacity="1" fill-rule="nonzero"/><path fill="#ffffff" d="M 0 0.0976562 L 112.003906 0.0976562 L 112.003906 44.902344 L 0 44.902344 Z M 0 0.0976562 " fill-opacity="1" fill-rule="nonzero"/></g><g fill="#004aad" fill-opacity="1"><g transform="translate(2.768128, 36.694348)"><g><path d="M 2.09375 0.078125 L 1.46875 0 L 1.265625 -0.484375 L 1.359375 -0.8125 L 1.359375 -1.46875 L 1.4375 -2.125 L 1.59375 -2.703125 L 1.640625 -3 L 1.765625 -3.5625 L 1.84375 -3.765625 L 1.96875 -4.34375 L 2.046875 -4.71875 L 2.171875 -5.375 L 2.171875 -5.65625 L 2.25 -5.984375 L 2.25 -6.515625 L 2.421875 -6.8125 L 2.453125 -7.296875 L 2.5 -7.578125 L 2.625 -8.078125 L 2.671875 -8.328125 L 2.625 -8.609375 L 2.703125 -9.140625 L 2.875 -9.796875 L 2.953125 -10.296875 L 3.03125 -10.65625 L 3.15625 -11.109375 L 3.234375 -11.609375 L 3.28125 -11.890625 L 3.359375 -12.140625 L 3.40625 -12.671875 L 3.4375 -12.921875 L 3.4375 -13.15625 L 3.65625 -13.65625 L 3.6875 -13.90625 L 3.734375 -14.1875 L 3.765625 -14.765625 L 3.8125 -15.171875 L 4.015625 -15.65625 L 4.09375 -15.984375 L 4.1875 -16.40625 L 4.1875 -16.96875 L 4.21875 -17.296875 L 4.34375 -17.625 L 4.34375 -17.953125 L 4.46875 -18.25 L 4.46875 -18.53125 L 4.546875 -18.8125 L 4.640625 -19.359375 L 4.75 -19.796875 L 4.875 -20.171875 L 4.875 -20.65625 L 4.921875 -20.953125 L 5 -21.203125 L 5.203125 -22.34375 L 5.203125 -22.625 L 5.375 -23 L 5.453125 -23.375 L 5.5 -23.90625 L 5.53125 -24.1875 L 5.578125 -24.4375 L 5.609375 -24.71875 L 5.703125 -24.96875 L 5.734375 -25.25 L 5.828125 -25.78125 L 5.90625 -26.28125 L 6.03125 -26.8125 L 6.03125 -27.140625 L 6.15625 -27.671875 L 6.234375 -27.921875 L 6.359375 -28.125 L 6.59375 -28.578125 L 7.015625 -28.65625 L 7.578125 -28.703125 L 8.28125 -28.65625 L 8.65625 -28.65625 L 9.1875 -28.703125 L 9.96875 -28.65625 L 10.453125 -28.703125 L 11.0625 -28.65625 L 11.640625 -28.65625 L 12.09375 -28.53125 L 12.34375 -28.171875 L 12.375 -27.875 L 12.546875 -27.46875 L 12.625 -26.984375 L 12.671875 -26.53125 L 12.828125 -25.953125 L 13 -24.96875 L 13.125 -24.3125 L 13.25 -23.609375 L 13.359375 -23.046875 L 13.53125 -22.21875 L 13.609375 -21.890625 L 13.65625 -21.609375 L 13.734375 -20.984375 L 13.859375 -20.453125 L 13.859375 -20.21875 L 13.984375 -19.765625 L 13.984375 -19.46875 L 14.015625 -19.03125 L 14.140625 -18.40625 L 14.234375 -17.71875 L 14.34375 -17.015625 L 14.390625 -16.359375 L 14.46875 -15.78125 L 14.5625 -15.453125 L 14.671875 -14.34375 L 14.84375 -13.40625 L 14.921875 -12.5 L 14.921875 -12.21875 L 15 -11.9375 L 15.09375 -11.4375 L 15.21875 -10.328125 L 15.328125 -9.4375 L 15.453125 -9.4375 L 15.5 -10.25 L 15.578125 -11.234375 L 15.578125 -11.8125 L 15.703125 -13.78125 L 15.828125 -14.640625 L 15.828125 -16.03125 L 15.953125 -16.609375 L 15.984375 -16.84375 L 16.03125 -17.140625 L 16.078125 -17.46875 L 16.109375 -18.046875 L 16.1875 -18.28125 L 16.28125 -18.859375 L 16.28125 -19.109375 L 16.4375 -19.640625 L 16.4375 -20.125 L 16.484375 -20.625 L 16.484375 -20.90625 L 16.734375 -21.40625 L 16.6875 -21.6875 L 16.8125 -22.421875 L 16.8125 -22.671875 L 16.9375 -23.203125 L 16.96875 -23.5 L 17.0625 -23.734375 L 17.140625 -24.3125 L 17.171875 -24.640625 L 17.296875 -25.21875 L 17.5 -25.828125 L 17.5 -26.203125 L 17.546875 -26.4375 L 17.671875 -27.09375 L 17.828125 -27.96875 L 18.15625 -28.53125 L 18.328125 -28.65625 L 19.109375 -28.828125 L 19.96875 -28.734375 L 20.25 -28.78125 L 20.65625 -28.78125 L 21.609375 -28.734375 L 22.015625 -28.734375 L 22.59375 -28.78125 L 23.171875 -28.65625 L 23.40625 -28.53125 L 23.453125 -28.203125 L 23.453125 -27.875 L 23.328125 -27.3125 L 23.375 -26.984375 L 23.25 -26.078125 L 23.171875 -25.5 L 22.921875 -24.515625 L 22.796875 -24.0625 L 22.671875 -23.328125 L 22.59375 -23 L 22.46875 -22.140625 L 22.296875 -21.484375 L 22.21875 -20.828125 L 22.09375 -20.453125 L 22.015625 -20.125 L 21.9375 -19.84375 L 21.9375 -19.3125 L 21.859375 -19.03125 L 21.6875 -17.796875 L 21.5625 -17.421875 L 21.53125 -16.96875 L 21.484375 -16.6875 L 21.40625 -16.359375 L 21.28125 -15.828125 L 21.203125 -15.53125 L 21.078125 -15 L 20.984375 -14.4375 L 20.90625 -14.109375 L 20.953125 -13.734375 L 20.875 -13.484375 L 20.828125 -13.203125 L 20.75 -12.953125 L 20.703125 -12.671875 L 20.65625 -12.421875 L 20.65625 -11.890625 L 20.546875 -11.640625 L 20.421875 -11.0625 L 20.34375 -10.703125 L 20.296875 -10.328125 L 20.25 -10.09375 L 20.21875 -9.796875 L 20.171875 -9.546875 L 20.171875 -9.3125 L 20.015625 -8.734375 L 19.921875 -8.15625 L 19.84375 -7.75 L 19.6875 -7.375 L 19.515625 -6.890625 L 19.46875 -6.4375 L 19.4375 -5.90625 L 19.359375 -5.375 L 19.234375 -5.046875 L 19.0625 -4.46875 L 19.0625 -3.8125 L 18.859375 -3.28125 L 18.859375 -3.03125 L 18.78125 -2.75 L 18.65625 -2.21875 L 18.453125 -0.90625 L 18.078125 -0.40625 L 17.671875 -0.125 L 17.09375 -0.078125 L 16.640625 0 L 16.484375 0 L 15.703125 -0.046875 L 15.421875 0 L 15 -0.046875 L 14.765625 0 L 13.9375 0 L 13.40625 -0.046875 L 12.703125 -0.046875 L 12.375 -0.328125 L 12.046875 -0.984375 L 11.84375 -1.5625 L 11.8125 -1.765625 L 11.765625 -2.25 L 11.71875 -2.5 L 11.640625 -3.359375 L 11.609375 -3.609375 L 11.4375 -4.46875 L 11.390625 -4.71875 L 11.3125 -5.28125 L 11.28125 -5.90625 L 11.15625 -6.359375 L 11.03125 -6.96875 L 11.03125 -7.21875 L 10.90625 -7.796875 L 10.859375 -8.03125 L 10.734375 -8.609375 L 10.703125 -8.859375 L 10.703125 -9.46875 L 10.53125 -10.296875 L 10.453125 -11.0625 L 10.296875 -12.21875 L 10.09375 -13.53125 L 9.96875 -14.671875 L 9.71875 -16.15625 L 9.46875 -17.71875 L 9.34375 -17.71875 L 9.3125 -16.5625 L 9.265625 -15.75 L 9.21875 -15.296875 L 9.140625 -14.59375 L 9.109375 -13.578125 L 8.8125 -11.609375 L 8.65625 -10 L 8.5625 -9.765625 L 8.453125 -9.21875 L 8.53125 -8.9375 L 8.40625 -8.453125 L 8.328125 -8.15625 L 8.359375 -7.875 L 8.328125 -7.625 L 8.234375 -7.046875 L 8.078125 -6.4375 L 7.90625 -5.609375 L 7.828125 -5.046875 L 7.796875 -4.796875 L 7.703125 -4.515625 L 7.546875 -3.328125 L 7.421875 -2.78125 L 7.375 -2.5 L 7.375 -1.96875 L 7.296875 -1.71875 L 7.171875 -0.984375 L 7.015625 -0.484375 L 6.890625 -0.078125 L 6.4375 0.078125 Z M 2.09375 0.078125 "/></g></g></g><g fill="#004aad" fill-opacity="1"><g transform="translate(24.86626, 36.694348)"><g><path d="M 6.03125 0.046875 L 5.25 0 L 4.1875 0 L 3.890625 -0.046875 L 1.71875 -0.046875 L 1.359375 -0.125 L 1.234375 -0.484375 L 1.359375 -0.859375 L 1.4375 -1.234375 L 1.515625 -1.84375 L 1.59375 -2.5 L 1.765625 -3.109375 L 1.796875 -3.765625 L 1.921875 -4.09375 L 1.921875 -4.46875 L 2.015625 -4.75 L 2.015625 -5.046875 L 2.09375 -5.375 L 2.125 -5.65625 L 2.171875 -6.234375 L 2.25 -6.765625 L 2.421875 -7.09375 L 2.5 -7.75 L 2.5 -8.03125 L 2.578125 -8.359375 L 2.671875 -8.890625 L 2.671875 -9.109375 L 2.828125 -9.59375 L 2.78125 -9.84375 L 2.90625 -10.375 L 3.03125 -10.65625 L 3.078125 -10.953125 L 3.203125 -11.5625 L 3.28125 -11.84375 L 3.4375 -12.703125 L 3.4375 -13.328125 L 3.609375 -13.90625 L 3.6875 -14.515625 L 3.8125 -14.796875 L 3.859375 -15.125 L 3.890625 -15.421875 L 3.890625 -15.703125 L 4.0625 -15.953125 L 4.3125 -17.171875 L 4.421875 -17.5 L 4.515625 -17.796875 L 4.46875 -18.046875 L 4.59375 -18.609375 L 4.75 -19.234375 L 4.796875 -20.375 L 4.921875 -20.65625 L 4.96875 -21.53125 L 5.125 -21.765625 L 5.203125 -22.09375 L 5.25 -22.390625 L 5.203125 -22.625 L 5.25 -22.921875 L 5.40625 -23.453125 L 5.5 -24.03125 L 5.609375 -24.265625 L 5.609375 -24.5625 L 5.734375 -24.84375 L 5.703125 -25.09375 L 5.78125 -25.375 L 5.828125 -25.90625 L 5.90625 -26.15625 L 5.9375 -26.40625 L 5.984375 -26.9375 L 6.03125 -27.1875 L 5.9375 -27.46875 L 6.0625 -27.96875 L 6.1875 -28.203125 L 6.234375 -28.453125 L 6.5625 -28.703125 L 7.25 -28.703125 L 7.5 -28.734375 L 7.796875 -28.703125 L 8.28125 -28.734375 L 8.5625 -28.734375 L 8.890625 -28.703125 L 9.3125 -28.703125 L 10.203125 -28.734375 L 13.28125 -28.78125 L 14.234375 -28.734375 L 14.5625 -28.703125 L 15.75 -28.734375 L 16.640625 -28.734375 L 17.015625 -28.78125 L 17.421875 -28.734375 L 17.796875 -28.703125 L 18 -28.40625 L 17.875 -27.96875 L 17.875 -27.71875 L 17.796875 -26.6875 L 17.796875 -26.4375 L 17.671875 -26.15625 L 17.625 -25.875 L 17.59375 -25.625 L 17.46875 -25.015625 L 17.46875 -24.6875 L 17.296875 -24.109375 L 17.265625 -23.859375 L 17.140625 -23.328125 L 16.734375 -23.28125 L 15 -23.28125 L 14.515625 -23.25 L 11.84375 -23.25 L 10.859375 -23.203125 L 10.734375 -22.71875 L 10.703125 -22.421875 L 10.703125 -21.859375 L 10.578125 -21.609375 L 10.578125 -21.28125 L 10.453125 -20.5 L 10.375 -19.921875 L 10.25 -19.359375 L 10.171875 -19.0625 L 10.203125 -18.734375 L 10.09375 -18.328125 L 10 -17.59375 L 10.734375 -17.59375 L 12.171875 -17.546875 L 12.953125 -17.625 L 14.015625 -17.625 L 14.34375 -17.546875 L 14.59375 -17.21875 L 14.515625 -16.734375 L 14.515625 -16.40625 L 14.4375 -15.953125 L 14.3125 -15.375 L 14.234375 -15.09375 L 14.109375 -14.46875 L 14.109375 -14.1875 L 13.984375 -13.859375 L 13.90625 -13.28125 L 13.78125 -12.625 L 13.6875 -12.046875 L 13.609375 -11.96875 L 13.203125 -11.96875 L 12.59375 -11.9375 L 12.21875 -11.9375 L 11.1875 -11.890625 L 10.5 -11.9375 L 10.046875 -11.9375 L 9.515625 -11.890625 L 9.140625 -11.890625 L 8.984375 -11.4375 L 8.859375 -10.90625 L 8.6875 -9.765625 L 8.5625 -9.34375 L 8.484375 -8.984375 L 8.453125 -8.5625 L 8.359375 -8.28125 L 8.234375 -7.546875 L 8.078125 -6.484375 L 8.078125 -6.15625 L 8.234375 -5.984375 L 8.8125 -5.90625 L 11.234375 -5.90625 L 11.8125 -5.859375 L 12.703125 -5.828125 L 13.859375 -5.859375 L 14.140625 -5.734375 L 14.109375 -5.40625 L 14.0625 -5.25 L 13.984375 -4.796875 L 13.9375 -4.46875 L 13.78125 -3.5625 L 13.78125 -3.03125 L 13.6875 -2.75 L 13.609375 -2.5 L 13.578125 -2.21875 L 13.453125 -1.59375 L 13.40625 -0.90625 L 13.328125 -0.53125 L 13.203125 -0.078125 L 9.3125 -0.078125 L 8.65625 -0.046875 L 8.125 -0.078125 L 7.875 -0.046875 L 7.015625 -0.046875 L 6.359375 0 Z M 6.03125 0.046875 "/></g></g></g><g fill="#004aad" fill-opacity="1"><g transform="translate(41.42981, 36.694348)"><g><path d="M 5.078125 0.125 L 4.71875 0 L 4.421875 0 L 4.0625 -0.328125 L 4.140625 -0.9375 L 4.1875 -1.796875 L 4.46875 -2.671875 L 4.546875 -2.953125 L 4.59375 -3.5625 L 4.671875 -3.8125 L 4.71875 -4.390625 L 4.71875 -4.671875 L 4.921875 -5.25 L 4.96875 -5.53125 L 4.921875 -5.859375 L 5.125 -6.71875 L 5.125 -7.046875 L 5.25 -7.546875 L 5.375 -8.15625 L 5.453125 -8.453125 L 5.5 -8.734375 L 5.578125 -9.265625 L 5.65625 -9.515625 L 5.703125 -10.09375 L 5.90625 -10.5 L 5.828125 -10.90625 L 5.859375 -11.1875 L 5.9375 -11.484375 L 6.15625 -12.046875 L 6.3125 -12.671875 L 6.390625 -12.953125 L 6.3125 -13.25 L 6.515625 -13.734375 L 6.59375 -13.984375 L 6.59375 -14.5625 L 6.71875 -14.96875 L 6.71875 -15.328125 L 6.8125 -15.625 L 6.96875 -15.859375 L 6.96875 -16.15625 L 7.046875 -16.40625 L 7.171875 -17.015625 L 7.140625 -17.296875 L 7.34375 -17.75 L 7.34375 -18.15625 L 7.421875 -18.375 L 7.421875 -18.703125 L 7.46875 -18.984375 L 7.546875 -19.265625 L 7.75 -19.921875 L 7.796875 -20.171875 L 7.796875 -20.421875 L 7.828125 -20.703125 L 7.828125 -20.953125 L 7.953125 -21.484375 L 8.03125 -21.765625 L 8.125 -22.390625 L 8.15625 -23.046875 L 5.9375 -23.046875 L 5.375 -23.078125 L 5.078125 -23.046875 L 4.71875 -23.046875 L 4.3125 -23.078125 L 3.984375 -23.078125 L 3.609375 -23.203125 L 3.484375 -23.578125 L 3.5625 -24.0625 L 3.6875 -24.390625 L 3.6875 -24.71875 L 3.65625 -25.015625 L 3.8125 -25.578125 L 3.890625 -25.828125 L 3.9375 -26.40625 L 4.09375 -26.9375 L 4.21875 -27.1875 L 4.21875 -27.75 L 4.265625 -28 L 4.46875 -28.453125 L 4.84375 -28.734375 L 5.125 -28.78125 L 6.1875 -28.78125 L 6.390625 -28.734375 L 6.6875 -28.734375 L 6.96875 -28.78125 L 10 -28.78125 L 10.296875 -28.734375 L 11.1875 -28.734375 L 13.8125 -28.78125 L 14.4375 -28.734375 L 15.296875 -28.78125 L 15.65625 -28.734375 L 18.203125 -28.734375 L 18.78125 -28.703125 L 19.140625 -28.625 L 19.234375 -28.296875 L 19.234375 -28.046875 L 19.1875 -27.75 L 19.109375 -27.421875 L 19.109375 -27.140625 L 19.0625 -26.890625 L 18.984375 -26.609375 L 18.984375 -26.359375 L 18.90625 -25.875 L 18.8125 -25.578125 L 18.78125 -25.34375 L 18.734375 -24.84375 L 18.578125 -24.3125 L 18.484375 -24.03125 L 18.453125 -23.453125 L 18.28125 -23.078125 L 17.875 -23.046875 L 17.5 -23.078125 L 17.015625 -23.078125 L 16.640625 -23.046875 L 16.234375 -23.046875 L 14.515625 -23.078125 L 14.140625 -23.046875 L 14.0625 -22.75 L 14.109375 -22.515625 L 13.984375 -22.21875 L 13.984375 -21.96875 L 13.90625 -21.734375 L 13.8125 -21.203125 L 13.78125 -20.90625 L 13.609375 -20.171875 L 13.453125 -19.84375 L 13.53125 -19.640625 L 13.328125 -19.0625 L 13.15625 -18.53125 L 13.15625 -18.28125 L 13.125 -17.796875 L 13.078125 -17.546875 L 13.078125 -17.265625 L 12.875 -16.765625 L 12.796875 -16.15625 L 12.703125 -15.859375 L 12.59375 -15.296875 L 12.46875 -15.046875 L 12.46875 -14.765625 L 12.421875 -14.234375 L 12.296875 -13.734375 L 12.140625 -13.453125 L 12.09375 -12.875 L 12.015625 -12.625 L 12.015625 -12.375 L 11.890625 -11.8125 L 11.765625 -11.1875 L 11.6875 -10.828125 L 11.6875 -10.40625 L 11.640625 -10.171875 L 11.5625 -9.921875 L 11.515625 -9.640625 L 11.359375 -9.140625 L 11.3125 -8.859375 L 11.28125 -8.609375 L 11.3125 -8.328125 L 11.1875 -7.75 L 11.0625 -7.09375 L 10.90625 -6.5625 L 10.859375 -6.265625 L 10.734375 -5.734375 L 10.53125 -4.875 L 10.453125 -4.546875 L 10.328125 -3.984375 L 10.375 -3.65625 L 10.171875 -2.75 L 9.921875 -1.59375 L 9.84375 -1.03125 L 9.71875 -0.453125 L 9.640625 -0.203125 L 9.140625 0 L 5.578125 0 Z M 5.078125 0.125 "/></g></g></g><g fill="#004aad" fill-opacity="1"><g transform="translate(57.870241, 36.694348)"><g><path d="M 8.125 0.53125 L 7.140625 0.453125 L 6.84375 0.40625 L 6.4375 0.40625 L 5.984375 0.328125 L 5.578125 0.25 L 5.28125 0.15625 L 4.640625 -0.125 L 4.1875 -0.28125 L 3.765625 -0.578125 L 3.28125 -0.90625 L 2.875 -1.4375 L 2.453125 -1.921875 L 2.09375 -2.5 L 1.796875 -3.203125 L 1.71875 -3.53125 L 1.4375 -4.265625 L 1.390625 -4.515625 L 1.265625 -5.078125 L 1.234375 -5.328125 L 1.140625 -5.984375 L 1.140625 -7.21875 L 1.1875 -7.90625 L 1.140625 -8.203125 L 1.234375 -8.8125 L 1.265625 -9.140625 L 1.359375 -9.4375 L 1.46875 -10.09375 L 2.046875 -10.375 L 3.03125 -10.453125 L 3.53125 -10.40625 L 5.828125 -10.40625 L 6.359375 -10.375 L 6.6875 -9.796875 L 6.6875 -8.28125 L 6.640625 -8 L 6.640625 -7.140625 L 6.71875 -6.234375 L 6.84375 -5.828125 L 7.140625 -5.203125 L 7.546875 -4.796875 L 8.078125 -4.671875 L 8.453125 -4.671875 L 8.78125 -4.75 L 9.21875 -4.875 L 9.4375 -5.078125 L 9.640625 -5.453125 L 9.796875 -5.734375 L 9.96875 -6.234375 L 10.046875 -6.71875 L 10.09375 -7.140625 L 10.09375 -7.421875 L 10.046875 -8 L 10.046875 -8.65625 L 9.875 -9.390625 L 9.875 -9.640625 L 9.765625 -10.25 L 9.4375 -10.828125 L 9.109375 -11.3125 L 8.8125 -11.890625 L 8.65625 -12.140625 L 8.5625 -12.34375 L 8.453125 -12.546875 L 8.15625 -12.828125 L 7.953125 -13.15625 L 7.5 -13.6875 L 7.296875 -13.90625 L 7.140625 -14.140625 L 6.6875 -14.671875 L 6.1875 -15.21875 L 5.828125 -15.75 L 5.40625 -16.1875 L 5 -16.515625 L 4.796875 -16.8125 L 4.546875 -17.21875 L 4.3125 -17.828125 L 4.140625 -18.203125 L 3.9375 -18.484375 L 3.8125 -18.78125 L 3.734375 -19.109375 L 3.5625 -19.640625 L 3.53125 -20.171875 L 3.484375 -20.5 L 3.53125 -20.78125 L 3.53125 -21.96875 L 3.609375 -22.796875 L 3.734375 -23.078125 L 3.765625 -23.65625 L 3.9375 -23.9375 L 4.0625 -24.359375 L 4.09375 -24.765625 L 4.34375 -25.296875 L 4.515625 -25.625 L 4.640625 -25.90625 L 4.75 -26.109375 L 5.078125 -26.484375 L 5.203125 -26.65625 L 5.453125 -27.0625 L 5.703125 -27.3125 L 6.1875 -27.71875 L 6.921875 -28.25 L 7.578125 -28.5 L 8.03125 -28.734375 L 8.8125 -28.90625 L 9.515625 -29.109375 L 10.78125 -29.109375 L 11.8125 -29.0625 L 12.09375 -29.0625 L 12.46875 -28.984375 L 13.078125 -28.953125 L 13.78125 -28.734375 L 14.0625 -28.703125 L 14.234375 -28.578125 L 14.71875 -28.328125 L 15 -28.078125 L 15.328125 -27.96875 L 15.78125 -27.546875 L 15.90625 -27.390625 L 16.3125 -26.9375 L 16.4375 -26.734375 L 16.734375 -26.28125 L 16.890625 -26.03125 L 16.96875 -25.578125 L 17.09375 -25.296875 L 17.34375 -24.3125 L 17.34375 -23.40625 L 17.390625 -22.59375 L 17.34375 -21.890625 L 17.171875 -20.75 L 17.015625 -19.84375 L 16.515625 -19.59375 L 15.78125 -19.5625 L 13.484375 -19.5625 L 12.921875 -19.59375 L 12.34375 -19.59375 L 12.015625 -19.890625 L 11.96875 -20.421875 L 12.046875 -20.75 L 12.171875 -22.015625 L 12.171875 -22.953125 L 12.09375 -23.453125 L 11.96875 -23.703125 L 11.609375 -24.0625 L 11.1875 -24.390625 L 10.65625 -24.484375 L 10.171875 -24.3125 L 9.71875 -24.109375 L 9.515625 -23.828125 L 9.390625 -23.53125 L 9.21875 -23.125 L 9.1875 -22.84375 L 9.0625 -22.421875 L 9.015625 -21.859375 L 9.015625 -21.3125 L 9.0625 -21.03125 L 9.34375 -20.25 L 9.671875 -19.6875 L 9.84375 -19.359375 L 10.125 -18.8125 L 10.578125 -18.25 L 11.109375 -17.59375 L 11.28125 -17.34375 L 11.484375 -17.140625 L 11.640625 -16.8125 L 11.8125 -16.609375 L 12.046875 -16.4375 L 12.46875 -16.109375 L 12.59375 -15.859375 L 12.796875 -15.75 L 12.921875 -15.53125 L 13.28125 -15.125 L 13.484375 -14.765625 L 13.984375 -14.265625 L 14.265625 -13.578125 L 14.640625 -13.125 L 14.671875 -12.921875 L 15 -12.09375 L 15.25 -11.5625 L 15.5 -10.703125 L 15.53125 -10.40625 L 15.578125 -10.09375 L 15.625 -9.796875 L 15.828125 -9.109375 L 15.90625 -8.859375 L 15.859375 -8.28125 L 15.828125 -8.03125 L 15.859375 -7.75 L 15.828125 -7.46875 L 15.828125 -6.3125 L 15.703125 -5.734375 L 15.65625 -5.5 L 15.65625 -4.875 L 15.5 -4.34375 L 15.421875 -4.015625 L 15.328125 -3.65625 L 15.125 -3.078125 L 14.765625 -2.375 L 14.515625 -2.21875 L 14.3125 -1.796875 L 14.109375 -1.640625 L 13.78125 -1.265625 L 13.578125 -1.109375 L 13.25 -0.8125 L 12.828125 -0.578125 L 12.46875 -0.28125 L 11.96875 -0.15625 L 11.71875 0 L 11.109375 0.203125 L 10.78125 0.25 L 10.25 0.40625 L 9.96875 0.453125 L 9.59375 0.40625 L 9.3125 0.453125 L 8.859375 0.453125 L 8.5625 0.484375 Z M 8.125 0.53125 "/></g></g></g><g fill="#004aad" fill-opacity="1"><g transform="translate(74.187603, 36.694348)"><g><path d="M 13.9375 0.078125 L 13.609375 0 L 12.5 0 L 12.046875 -0.046875 L 11.765625 -0.046875 L 11.484375 -0.078125 L 11.234375 -0.453125 L 11.28125 -0.78125 L 11.3125 -1.140625 L 11.390625 -1.515625 L 11.5625 -1.796875 L 11.5625 -2.375 L 11.71875 -3.234375 L 11.765625 -3.53125 L 11.765625 -3.8125 L 11.8125 -4.09375 L 11.84375 -4.640625 L 11.9375 -4.84375 L 11.96875 -5.40625 L 12.09375 -6.03125 L 12.171875 -6.8125 L 12.421875 -8.03125 L 12.59375 -8.484375 L 12.671875 -8.890625 L 12.671875 -9.390625 L 12.796875 -9.96875 L 12.875 -10.25 L 12.953125 -10.828125 L 12.953125 -11.109375 L 13.03125 -11.609375 L 12.671875 -11.5625 L 12.375 -11.5625 L 12.015625 -11.640625 L 10.703125 -11.515625 L 10.09375 -11.640625 L 9.390625 -11.6875 L 9.34375 -11.484375 L 9.3125 -11.15625 L 9.140625 -10.578125 L 9.0625 -10.046875 L 8.890625 -9.765625 L 8.890625 -9.0625 L 8.8125 -8.78125 L 8.609375 -7.828125 L 8.359375 -6.921875 L 8.40625 -6.6875 L 8.203125 -6.1875 L 8.15625 -5.984375 L 8 -5.453125 L 7.90625 -4.84375 L 7.671875 -3.6875 L 7.625 -3.359375 L 7.5 -2.78125 L 7.5 -2.5 L 7.421875 -1.921875 L 7.34375 -1.59375 L 7.296875 -1.3125 L 7.21875 -0.703125 L 7.015625 -0.28125 L 6.6875 -0.125 L 6.3125 -0.078125 L 5.828125 -0.046875 L 5.203125 0.046875 L 4.875 0.046875 L 4.59375 -0.078125 L 4.3125 -0.046875 L 4.015625 0.046875 L 3.53125 -0.046875 L 2.21875 -0.046875 L 1.390625 -0.125 L 1.234375 -0.578125 L 1.234375 -0.90625 L 1.390625 -1.265625 L 1.59375 -1.796875 L 1.640625 -2.21875 L 1.71875 -2.578125 L 1.71875 -2.875 L 1.796875 -3.109375 L 1.71875 -3.40625 L 1.96875 -3.859375 L 2.046875 -4.140625 L 2.015625 -4.46875 L 2.171875 -5.046875 L 2.125 -5.609375 L 2.296875 -5.90625 L 2.453125 -6.265625 L 2.5 -6.5625 L 2.5 -6.890625 L 2.625 -7.46875 L 2.703125 -7.796875 L 2.90625 -9.21875 L 3 -9.46875 L 3.03125 -9.71875 L 3.109375 -10.046875 L 3.078125 -10.328125 L 3.234375 -10.90625 L 3.28125 -11.4375 L 3.40625 -11.84375 L 3.484375 -12.34375 L 3.484375 -12.625 L 3.5625 -13.25 L 3.6875 -13.53125 L 3.8125 -13.859375 L 3.8125 -14.1875 L 3.984375 -14.765625 L 4.1875 -15.953125 L 4.21875 -16.1875 L 4.3125 -16.765625 L 4.34375 -17.34375 L 4.59375 -17.921875 L 4.640625 -18.203125 L 4.671875 -18.78125 L 4.84375 -19.640625 L 4.921875 -20.171875 L 5 -20.5 L 5.125 -21.359375 L 5.171875 -21.5625 L 5.171875 -22.140625 L 5.328125 -22.46875 L 5.375 -22.796875 L 5.40625 -23.046875 L 5.53125 -23.578125 L 5.53125 -24.4375 L 5.828125 -24.96875 L 5.78125 -25.546875 L 5.859375 -25.828125 L 5.90625 -26.109375 L 6.03125 -26.40625 L 5.984375 -26.734375 L 6.0625 -27.015625 L 6.1875 -27.546875 L 6.234375 -28.046875 L 6.265625 -28.5 L 6.640625 -28.703125 L 7.671875 -28.703125 L 9.34375 -28.734375 L 9.921875 -28.703125 L 10.828125 -28.703125 L 11.234375 -28.828125 L 11.71875 -28.734375 L 12.140625 -28.65625 L 12.21875 -28.296875 L 12.21875 -28.046875 L 12.265625 -27.75 L 12.140625 -27.265625 L 12.09375 -27.015625 L 12.046875 -26.4375 L 11.9375 -26.078125 L 11.890625 -25.703125 L 11.71875 -24.921875 L 11.640625 -24.359375 L 11.609375 -23.859375 L 11.484375 -23.578125 L 11.484375 -22.921875 L 11.390625 -22.625 L 11.3125 -22.296875 L 11.28125 -21.765625 L 11.1875 -21.5625 L 11.15625 -21.078125 L 11.15625 -20.828125 L 11.0625 -20.625 L 10.984375 -20.296875 L 10.953125 -20.015625 L 10.828125 -19.765625 L 10.859375 -19.46875 L 10.734375 -18.9375 L 10.65625 -18.65625 L 10.703125 -18.40625 L 10.625 -18.078125 L 10.578125 -17.828125 L 10.5 -17.5 L 10.78125 -17.46875 L 11.109375 -17.46875 L 12.296875 -17.421875 L 12.625 -17.46875 L 13.125 -17.421875 L 13.453125 -17.46875 L 14.3125 -17.421875 L 14.34375 -17.625 L 14.4375 -18.078125 L 14.59375 -18.453125 L 14.59375 -18.734375 L 14.640625 -19.03125 L 14.84375 -19.640625 L 14.765625 -19.890625 L 14.96875 -20.421875 L 15 -20.65625 L 15.046875 -20.953125 L 15.09375 -21.28125 L 15.125 -21.5625 L 15.21875 -21.8125 L 15.21875 -22.09375 L 15.328125 -22.625 L 15.375 -23.171875 L 15.53125 -23.53125 L 15.53125 -24.03125 L 15.5 -24.359375 L 15.53125 -24.640625 L 15.703125 -25.21875 L 15.703125 -25.546875 L 15.828125 -26.078125 L 15.90625 -26.328125 L 15.984375 -26.859375 L 16.03125 -27.09375 L 16.1875 -27.46875 L 16.28125 -27.75 L 16.234375 -28.046875 L 16.28125 -28.296875 L 16.609375 -28.65625 L 16.84375 -28.703125 L 17.21875 -28.734375 L 18.703125 -28.734375 L 19.515625 -28.703125 L 20.65625 -28.703125 L 21.3125 -28.625 L 21.609375 -28.5 L 21.890625 -28.125 L 21.859375 -27.875 L 21.890625 -27.59375 L 21.734375 -27.34375 L 21.765625 -27.1875 L 21.734375 -26.9375 L 21.734375 -26.65625 L 21.5625 -26.15625 L 21.53125 -25.578125 L 21.53125 -25.25 L 21.484375 -24.96875 L 21.40625 -24.6875 L 21.3125 -24.359375 L 21.28125 -23.828125 L 21.28125 -23.53125 L 21.203125 -23 L 21.15625 -22.71875 L 21.03125 -22.1875 L 20.984375 -21.890625 L 20.90625 -21.609375 L 20.875 -21.28125 L 20.78125 -20.75 L 20.75 -20.5 L 20.546875 -20.015625 L 20.5 -19.765625 L 20.421875 -19.234375 L 20.34375 -18.578125 L 20.296875 -17.953125 L 20.09375 -17.390625 L 20.046875 -16.765625 L 20.015625 -16.515625 L 19.890625 -15.953125 L 19.84375 -15.65625 L 19.6875 -15.421875 L 19.6875 -15.09375 L 19.765625 -14.796875 L 19.640625 -14.5625 L 19.59375 -14.265625 L 19.59375 -13.734375 L 19.5625 -13.453125 L 19.359375 -12.921875 L 19.3125 -12.625 L 19.140625 -11.890625 L 19.140625 -11.640625 L 19.0625 -11.1875 L 18.9375 -10.625 L 18.859375 -10.328125 L 18.90625 -10.09375 L 18.65625 -9.21875 L 18.703125 -8.984375 L 18.609375 -8.6875 L 18.53125 -8.453125 L 18.484375 -8.15625 L 18.375 -7.578125 L 18.375 -7.25 L 18.328125 -6.96875 L 18.203125 -6.390625 L 18.078125 -5.9375 L 18 -5.703125 L 17.953125 -5.125 L 17.921875 -4.46875 L 17.796875 -3.890625 L 17.75 -3.609375 L 17.671875 -3.078125 L 17.59375 -2.78125 L 17.546875 -2.34375 L 17.46875 -1.84375 L 17.34375 -1.640625 L 17.296875 -1.3125 L 17.21875 -1.03125 L 17.21875 -0.703125 L 17.140625 -0.40625 L 16.96875 -0.15625 L 16.484375 -0.046875 L 15.859375 -0.046875 L 15.625 0 L 15.09375 0.046875 L 14.265625 0.046875 Z M 13.9375 0.078125 "/></g></g></g><g fill="#000000" fill-opacity="1"><g transform="translate(92.070371, 37.27626)"><g><path d="M 0.828125 0 L 0.453125 0 L 0.328125 -0.015625 L 0.265625 -0.015625 L 0.1875 -0.03125 L 0.140625 -0.046875 L 0.140625 -0.25 L 0.15625 -0.328125 L 0.140625 -0.375 L 0.15625 -0.40625 L 0.171875 -0.5 L 0.203125 -0.78125 L 0.21875 -0.875 L 0.234375 -0.90625 L 0.28125 -0.953125 L 0.46875 -0.953125 L 0.640625 -0.9375 L 0.703125 -0.9375 L 0.75 -0.953125 L 0.796875 -0.9375 L 1.03125 -0.9375 L 1.09375 -0.90625 L 1.140625 -0.859375 L 1.15625 -0.765625 L 1.140625 -0.671875 L 1.125 -0.59375 L 1.109375 -0.5 L 1.078125 -0.390625 L 1.078125 -0.3125 L 1.0625 -0.234375 L 1.0625 -0.15625 L 1.046875 -0.109375 L 0.984375 -0.03125 L 0.890625 0 Z M 0.828125 0 "/></g></g></g><g fill="#000000" fill-opacity="1"><g transform="translate(93.523329, 37.27626)"><g><path d="M 1.40625 0.078125 L 1.296875 0.078125 L 1.25 0.0625 L 1.1875 0.0625 L 1.140625 0.046875 L 1.09375 0.046875 L 1.03125 0.03125 L 0.984375 0.03125 L 0.953125 0.015625 L 0.859375 -0.015625 L 0.78125 -0.03125 L 0.75 -0.078125 L 0.6875 -0.109375 L 0.65625 -0.140625 L 0.609375 -0.15625 L 0.53125 -0.21875 L 0.46875 -0.28125 L 0.375 -0.46875 L 0.359375 -0.546875 L 0.34375 -0.578125 L 0.328125 -0.671875 L 0.3125 -0.71875 L 0.3125 -1.15625 L 0.328125 -1.28125 L 0.328125 -1.421875 L 0.34375 -1.515625 L 0.34375 -1.5625 L 0.359375 -1.609375 L 0.359375 -1.734375 L 0.390625 -1.828125 L 0.390625 -1.9375 L 0.421875 -2 L 0.40625 -2.03125 L 0.421875 -2.15625 L 0.453125 -2.1875 L 0.453125 -2.28125 L 0.46875 -2.296875 L 0.46875 -2.328125 L 0.484375 -2.390625 L 0.5 -2.46875 L 0.515625 -2.53125 L 0.515625 -2.640625 L 0.53125 -2.6875 L 0.53125 -2.78125 L 0.5625 -2.90625 L 0.578125 -2.953125 L 0.609375 -3.078125 L 0.625 -3.125 L 0.625 -3.171875 L 0.640625 -3.203125 L 0.640625 -3.25 L 0.671875 -3.34375 L 0.6875 -3.421875 L 0.78125 -3.671875 L 0.796875 -3.765625 L 0.84375 -3.875 L 0.875 -3.953125 L 0.90625 -4.046875 L 0.9375 -4.109375 L 0.984375 -4.15625 L 1.078125 -4.28125 L 1.203125 -4.40625 L 1.28125 -4.4375 L 1.328125 -4.453125 L 1.453125 -4.515625 L 1.5625 -4.53125 L 1.65625 -4.5625 L 2.015625 -4.5625 L 2.171875 -4.546875 L 2.234375 -4.53125 L 2.296875 -4.53125 L 2.390625 -4.515625 L 2.421875 -4.515625 L 2.515625 -4.484375 L 2.546875 -4.46875 L 2.609375 -4.453125 L 2.703125 -4.421875 L 2.859375 -4.296875 L 2.921875 -4.171875 L 2.9375 -4.125 L 2.96875 -4.0625 L 2.984375 -4 L 2.984375 -3.84375 L 3 -3.78125 L 3 -3.484375 L 2.984375 -3.421875 L 2.953125 -3.234375 L 2.921875 -2.984375 L 2.90625 -2.921875 L 2.875 -2.765625 L 2.84375 -2.734375 L 2.78125 -2.734375 L 2.6875 -2.71875 L 2.28125 -2.734375 L 2.09375 -2.75 L 2.046875 -2.828125 L 2.046875 -2.921875 L 2.0625 -2.953125 L 2.09375 -3.078125 L 2.09375 -3.171875 L 2.140625 -3.3125 L 2.140625 -3.390625 L 2.15625 -3.484375 L 2.15625 -3.578125 L 2.125 -3.6875 L 2.046875 -3.734375 L 1.953125 -3.75 L 1.890625 -3.75 L 1.8125 -3.734375 L 1.75 -3.71875 L 1.6875 -3.640625 L 1.671875 -3.609375 L 1.640625 -3.5625 L 1.625 -3.453125 L 1.59375 -3.375 L 1.546875 -3.265625 L 1.546875 -3.21875 L 1.53125 -3.140625 L 1.5 -3.046875 L 1.484375 -2.96875 L 1.453125 -2.875 L 1.453125 -2.828125 L 1.4375 -2.78125 L 1.421875 -2.703125 L 1.390625 -2.59375 L 1.34375 -2.34375 L 1.34375 -2.296875 L 1.3125 -2.1875 L 1.3125 -2.140625 L 1.296875 -2.0625 L 1.28125 -2.015625 L 1.265625 -1.921875 L 1.265625 -1.78125 L 1.234375 -1.6875 L 1.234375 -1.59375 L 1.21875 -1.546875 L 1.21875 -1.5 L 1.203125 -1.375 L 1.203125 -1.3125 L 1.1875 -1.234375 L 1.171875 -1.140625 L 1.171875 -1.078125 L 1.1875 -1.03125 L 1.1875 -1 L 1.203125 -0.890625 L 1.359375 -0.8125 L 1.453125 -0.828125 L 1.5625 -0.828125 L 1.640625 -0.890625 L 1.671875 -0.921875 L 1.71875 -1.03125 L 1.75 -1.125 L 1.78125 -1.203125 L 1.78125 -1.25 L 1.796875 -1.28125 L 1.8125 -1.359375 L 1.828125 -1.453125 L 1.84375 -1.515625 L 1.84375 -1.5625 L 1.890625 -1.640625 L 1.890625 -1.703125 L 1.9375 -1.75 L 2 -1.765625 L 2.15625 -1.75 L 2.296875 -1.75 L 2.609375 -1.734375 L 2.6875 -1.734375 L 2.734375 -1.6875 L 2.75 -1.640625 L 2.75 -1.5625 L 2.734375 -1.53125 L 2.734375 -1.40625 L 2.71875 -1.328125 L 2.703125 -1.296875 L 2.703125 -1.234375 L 2.671875 -1.09375 L 2.671875 -1.0625 L 2.625 -0.890625 L 2.609375 -0.8125 L 2.59375 -0.78125 L 2.59375 -0.734375 L 2.5625 -0.6875 L 2.53125 -0.59375 L 2.5 -0.515625 L 2.484375 -0.46875 L 2.453125 -0.421875 L 2.421875 -0.390625 L 2.40625 -0.359375 L 2.390625 -0.3125 L 2.296875 -0.203125 L 2.203125 -0.109375 L 2.09375 -0.046875 L 2.046875 -0.03125 L 1.890625 0 L 1.8125 0.03125 L 1.734375 0.03125 L 1.640625 0.0625 L 1.46875 0.0625 Z M 1.40625 0.078125 "/></g></g></g><g fill="#000000" fill-opacity="1"><g transform="translate(96.314039, 37.27626)"><g><path d="M 1.546875 0.109375 L 1.390625 0.078125 L 1.296875 0.09375 L 1.25 0.078125 L 1.203125 0.078125 L 1.046875 0.03125 L 1 0.03125 L 0.90625 0 L 0.859375 -0.03125 L 0.765625 -0.078125 L 0.65625 -0.171875 L 0.5625 -0.28125 L 0.546875 -0.3125 L 0.515625 -0.34375 L 0.5 -0.390625 L 0.46875 -0.421875 L 0.40625 -0.515625 L 0.40625 -0.546875 L 0.390625 -0.59375 L 0.390625 -0.640625 L 0.359375 -0.703125 L 0.359375 -0.75 L 0.34375 -0.78125 L 0.328125 -0.875 L 0.328125 -0.921875 L 0.3125 -1.046875 L 0.328125 -1.09375 L 0.328125 -1.203125 L 0.34375 -1.28125 L 0.328125 -1.328125 L 0.328125 -1.375 L 0.34375 -1.515625 L 0.375 -1.609375 L 0.375 -1.65625 L 0.390625 -1.75 L 0.390625 -1.78125 L 0.40625 -1.875 L 0.390625 -1.90625 L 0.40625 -2 L 0.421875 -2.03125 L 0.4375 -2.15625 L 0.46875 -2.234375 L 0.46875 -2.3125 L 0.484375 -2.390625 L 0.484375 -2.4375 L 0.5 -2.46875 L 0.515625 -2.515625 L 0.515625 -2.5625 L 0.53125 -2.59375 L 0.515625 -2.640625 L 0.5625 -2.703125 L 0.5625 -2.84375 L 0.578125 -2.921875 L 0.609375 -2.953125 L 0.609375 -3 L 0.625 -3.09375 L 0.640625 -3.25 L 0.671875 -3.296875 L 0.6875 -3.375 L 0.734375 -3.453125 L 0.75 -3.5 L 0.78125 -3.578125 L 0.8125 -3.671875 L 0.84375 -3.75 L 0.875 -3.796875 L 0.921875 -3.875 L 0.9375 -3.921875 L 0.96875 -3.953125 L 1.015625 -4.046875 L 1.0625 -4.125 L 1.109375 -4.15625 L 1.234375 -4.28125 L 1.3125 -4.34375 L 1.359375 -4.359375 L 1.40625 -4.390625 L 1.5625 -4.484375 L 1.65625 -4.5 L 1.703125 -4.515625 L 1.796875 -4.53125 L 1.859375 -4.546875 L 1.96875 -4.5625 L 2.0625 -4.5625 L 2.140625 -4.578125 L 2.25 -4.5625 L 2.359375 -4.5625 L 2.46875 -4.546875 L 2.515625 -4.515625 L 2.5625 -4.515625 L 2.609375 -4.5 L 2.703125 -4.453125 L 2.8125 -4.375 L 2.875 -4.34375 L 2.96875 -4.25 L 3.046875 -4.1875 L 3.078125 -4.15625 L 3.125 -4.015625 L 3.15625 -3.984375 L 3.171875 -3.953125 L 3.171875 -3.90625 L 3.203125 -3.8125 L 3.203125 -3.6875 L 3.21875 -3.625 L 3.21875 -3.59375 L 3.203125 -3.5 L 3.203125 -3.25 L 3.1875 -3.203125 L 3.1875 -3.03125 L 3.171875 -2.9375 L 3.171875 -2.84375 L 3.15625 -2.734375 L 3.140625 -2.6875 L 3.125 -2.59375 L 3.140625 -2.53125 L 3.109375 -2.453125 L 3.109375 -2.375 L 3.09375 -2.296875 L 3.078125 -2.203125 L 3.03125 -1.96875 L 3.015625 -1.921875 L 2.984375 -1.8125 L 2.984375 -1.703125 L 2.96875 -1.625 L 2.953125 -1.578125 L 2.890625 -1.359375 L 2.890625 -1.3125 L 2.859375 -1.25 L 2.84375 -1.203125 L 2.828125 -1.140625 L 2.796875 -1.0625 L 2.78125 -0.984375 L 2.78125 -0.9375 L 2.765625 -0.875 L 2.734375 -0.828125 L 2.71875 -0.765625 L 2.671875 -0.671875 L 2.625 -0.5625 L 2.53125 -0.421875 L 2.515625 -0.390625 L 2.484375 -0.359375 L 2.46875 -0.3125 L 2.390625 -0.234375 L 2.34375 -0.203125 L 2.25 -0.109375 L 2.171875 -0.0625 L 2.140625 -0.03125 L 1.953125 0.03125 L 1.890625 0.03125 L 1.8125 0.0625 L 1.765625 0.0625 L 1.6875 0.078125 Z M 1.5 -0.765625 L 1.578125 -0.765625 L 1.671875 -0.796875 L 1.734375 -0.8125 L 1.8125 -0.890625 L 1.859375 -0.96875 L 1.90625 -1.0625 L 1.921875 -1.109375 L 1.921875 -1.15625 L 1.9375 -1.25 L 1.953125 -1.296875 L 1.953125 -1.390625 L 1.984375 -1.4375 L 1.984375 -1.53125 L 2 -1.578125 L 2.03125 -1.65625 L 2.03125 -1.703125 L 2.046875 -1.75 L 2.046875 -1.8125 L 2.0625 -1.875 L 2.078125 -1.96875 L 2.09375 -2.125 L 2.109375 -2.171875 L 2.140625 -2.234375 L 2.140625 -2.34375 L 2.171875 -2.390625 L 2.15625 -2.5 L 2.1875 -2.59375 L 2.203125 -2.671875 L 2.203125 -2.71875 L 2.21875 -2.765625 L 2.21875 -2.890625 L 2.234375 -2.953125 L 2.25 -3.03125 L 2.265625 -3.09375 L 2.265625 -3.171875 L 2.28125 -3.296875 L 2.28125 -3.375 L 2.296875 -3.46875 L 2.28125 -3.59375 L 2.25 -3.625 L 2.203125 -3.6875 L 2.09375 -3.734375 L 1.984375 -3.734375 L 1.921875 -3.71875 L 1.828125 -3.671875 L 1.765625 -3.625 L 1.71875 -3.546875 L 1.6875 -3.46875 L 1.671875 -3.421875 L 1.625 -3.34375 L 1.609375 -3.296875 L 1.609375 -3.25 L 1.5625 -3.109375 L 1.5625 -3.046875 L 1.53125 -2.953125 L 1.53125 -2.921875 L 1.5 -2.828125 L 1.46875 -2.640625 L 1.453125 -2.59375 L 1.453125 -2.546875 L 1.4375 -2.453125 L 1.421875 -2.40625 L 1.390625 -2.296875 L 1.375 -2.25 L 1.359375 -2.171875 L 1.359375 -2.03125 L 1.3125 -1.890625 L 1.3125 -1.765625 L 1.296875 -1.703125 L 1.296875 -1.65625 L 1.28125 -1.609375 L 1.28125 -1.5625 L 1.265625 -1.46875 L 1.265625 -1.421875 L 1.25 -1.375 L 1.265625 -1.328125 L 1.265625 -1.25 L 1.234375 -1.1875 L 1.25 -1.140625 L 1.25 -0.96875 L 1.28125 -0.921875 L 1.28125 -0.890625 L 1.359375 -0.8125 L 1.40625 -0.78125 L 1.453125 -0.78125 Z M 1.5 -0.765625 "/></g></g></g><g fill="#000000" fill-opacity="1"><g transform="translate(99.418381, 37.27626)"><g><path d="M 0.75 0.015625 L 0.5625 0 L 0.3125 0 L 0.25 -0.0625 L 0.25 -0.203125 L 0.265625 -0.25 L 0.25 -0.296875 L 0.265625 -0.359375 L 0.28125 -0.40625 L 0.28125 -0.484375 L 0.3125 -0.640625 L 0.328125 -0.671875 L 0.34375 -0.765625 L 0.359375 -0.8125 L 0.359375 -0.859375 L 0.375 -0.90625 L 0.375 -0.96875 L 0.390625 -1.046875 L 0.40625 -1.140625 L 0.421875 -1.1875 L 0.421875 -1.28125 L 0.4375 -1.375 L 0.453125 -1.40625 L 0.46875 -1.5 L 0.46875 -1.609375 L 0.5 -1.703125 L 0.5 -1.84375 L 0.53125 -1.96875 L 0.53125 -2.03125 L 0.546875 -2.0625 L 0.5625 -2.140625 L 0.5625 -2.1875 L 0.578125 -2.25 L 0.59375 -2.296875 L 0.609375 -2.375 L 0.609375 -2.484375 L 0.625 -2.53125 L 0.625 -2.578125 L 0.640625 -2.65625 L 0.640625 -2.703125 L 0.671875 -2.734375 L 0.6875 -2.8125 L 0.6875 -2.90625 L 0.703125 -2.984375 L 0.71875 -3.03125 L 0.734375 -3.109375 L 0.734375 -3.15625 L 0.75 -3.234375 L 0.75 -3.296875 L 0.78125 -3.375 L 0.78125 -3.421875 L 0.796875 -3.453125 L 0.796875 -3.5 L 0.8125 -3.546875 L 0.84375 -3.734375 L 0.84375 -3.765625 L 0.859375 -3.859375 L 0.859375 -3.9375 L 0.890625 -4 L 0.890625 -4.046875 L 0.90625 -4.125 L 0.90625 -4.1875 L 0.921875 -4.234375 L 0.921875 -4.296875 L 0.953125 -4.359375 L 0.953125 -4.40625 L 0.984375 -4.484375 L 1.8125 -4.484375 L 1.84375 -4.421875 L 1.859375 -4.25 L 1.875 -4.203125 L 1.890625 -4.109375 L 1.890625 -4.078125 L 1.921875 -3.984375 L 1.921875 -3.875 L 1.9375 -3.765625 L 1.953125 -3.6875 L 1.953125 -3.59375 L 1.96875 -3.5625 L 1.96875 -3.5 L 2 -3.375 L 2 -3.328125 L 2.015625 -3.234375 L 2.015625 -3.203125 L 2.046875 -3.109375 L 2.046875 -2.984375 L 2.0625 -2.90625 L 2.078125 -2.8125 L 2.078125 -2.78125 L 2.09375 -2.6875 L 2.125 -2.46875 L 2.140625 -2.375 L 2.140625 -2.34375 L 2.15625 -2.296875 L 2.15625 -2.25 L 2.171875 -2.203125 L 2.171875 -2.125 L 2.203125 -2 L 2.21875 -2 L 2.3125 -2.171875 L 2.34375 -2.234375 L 2.40625 -2.34375 L 2.421875 -2.390625 L 2.46875 -2.46875 L 2.5 -2.53125 L 2.546875 -2.59375 L 2.546875 -2.640625 L 2.59375 -2.734375 L 2.640625 -2.78125 L 2.65625 -2.84375 L 2.703125 -2.9375 L 2.734375 -2.96875 L 2.765625 -3.046875 L 2.828125 -3.125 L 2.84375 -3.171875 L 2.859375 -3.203125 L 2.921875 -3.3125 L 3.046875 -3.5625 L 3.078125 -3.59375 L 3.171875 -3.78125 L 3.203125 -3.859375 L 3.25 -3.953125 L 3.296875 -4.015625 L 3.34375 -4.09375 L 3.359375 -4.140625 L 3.421875 -4.265625 L 3.453125 -4.34375 L 3.5 -4.40625 L 3.53125 -4.484375 L 4.296875 -4.484375 L 4.34375 -4.453125 L 4.359375 -4.40625 L 4.34375 -4.3125 L 4.328125 -4.28125 L 4.328125 -4.1875 L 4.3125 -4.171875 L 4.3125 -4.078125 L 4.296875 -4.03125 L 4.296875 -3.921875 L 4.28125 -3.890625 L 4.265625 -3.84375 L 4.234375 -3.765625 L 4.234375 -3.703125 L 4.21875 -3.625 L 4.203125 -3.578125 L 4.203125 -3.46875 L 4.1875 -3.421875 L 4.1875 -3.3125 L 4.125 -3.1875 L 4.125 -3.15625 L 4.109375 -3.0625 L 4.109375 -2.953125 L 4.078125 -2.90625 L 4.078125 -2.8125 L 4.0625 -2.765625 L 4.0625 -2.734375 L 4.03125 -2.640625 L 4 -2.484375 L 4 -2.4375 L 3.984375 -2.390625 L 3.96875 -2.3125 L 3.96875 -2.25 L 3.953125 -2.15625 L 3.9375 -2.109375 L 3.9375 -1.984375 L 3.921875 -1.9375 L 3.921875 -1.890625 L 3.90625 -1.8125 L 3.875 -1.765625 L 3.890625 -1.71875 L 3.859375 -1.53125 L 3.859375 -1.5 L 3.84375 -1.40625 L 3.8125 -1.3125 L 3.8125 -1.265625 L 3.78125 -1.171875 L 3.78125 -1.125 L 3.765625 -1.078125 L 3.765625 -0.984375 L 3.75 -0.953125 L 3.734375 -0.859375 L 3.734375 -0.8125 L 3.703125 -0.71875 L 3.703125 -0.671875 L 3.6875 -0.640625 L 3.6875 -0.5625 L 3.671875 -0.515625 L 3.671875 -0.46875 L 3.65625 -0.390625 L 3.65625 -0.328125 L 3.625 -0.25 L 3.609375 -0.15625 L 3.59375 -0.078125 L 3.578125 -0.015625 L 3.484375 0 L 2.78125 0 L 2.734375 -0.03125 L 2.71875 -0.109375 L 2.71875 -0.1875 L 2.734375 -0.28125 L 2.75 -0.328125 L 2.765625 -0.421875 L 2.78125 -0.46875 L 2.78125 -0.5625 L 2.8125 -0.75 L 2.84375 -0.828125 L 2.84375 -0.90625 L 2.875 -0.984375 L 2.890625 -1.0625 L 2.890625 -1.15625 L 2.90625 -1.25 L 2.921875 -1.28125 L 2.9375 -1.359375 L 2.9375 -1.40625 L 2.953125 -1.453125 L 2.96875 -1.515625 L 2.96875 -1.609375 L 2.984375 -1.640625 L 3.03125 -1.890625 L 3.0625 -2.015625 L 3.078125 -2.09375 L 3.078125 -2.140625 L 3.09375 -2.1875 L 3.125 -2.34375 L 3.09375 -2.34375 L 2.90625 -1.953125 L 2.765625 -1.640625 L 2.671875 -1.4375 L 2.53125 -1.171875 L 2.359375 -0.796875 L 2.3125 -0.71875 L 2.28125 -0.65625 L 2.21875 -0.640625 L 2.171875 -0.640625 L 2.125 -0.65625 L 1.984375 -0.640625 L 1.859375 -0.671875 L 1.796875 -0.671875 L 1.71875 -0.71875 L 1.71875 -0.75 L 1.6875 -0.859375 L 1.671875 -0.921875 L 1.671875 -0.96875 L 1.65625 -1.015625 L 1.65625 -1.0625 L 1.640625 -1.109375 L 1.625 -1.203125 L 1.609375 -1.34375 L 1.609375 -1.390625 L 1.578125 -1.46875 L 1.5625 -1.5625 L 1.53125 -1.828125 L 1.515625 -1.953125 L 1.5 -2.0625 L 1.5 -2.140625 L 1.46875 -2.4375 L 1.4375 -2.4375 L 1.40625 -2.171875 L 1.40625 -2.09375 L 1.390625 -2 L 1.359375 -1.75 L 1.359375 -1.703125 L 1.34375 -1.671875 L 1.34375 -1.546875 L 1.328125 -1.5 L 1.3125 -1.421875 L 1.3125 -1.390625 L 1.296875 -1.34375 L 1.28125 -1.25 L 1.28125 -1.125 L 1.265625 -1.03125 L 1.25 -0.953125 L 1.25 -0.90625 L 1.234375 -0.828125 L 1.21875 -0.78125 L 1.21875 -0.71875 L 1.1875 -0.53125 L 1.1875 -0.5 L 1.171875 -0.421875 L 1.171875 -0.328125 L 1.15625 -0.25 L 1.140625 -0.203125 L 1.140625 -0.171875 L 1.125 -0.109375 L 1.09375 -0.03125 L 1.015625 0 L 0.78125 0 Z M 0.75 0.015625 "/></g></g></g><g fill="#000000" fill-opacity="1"><g transform="translate(103.553241, 37.27626)"><g><path d="M 0.828125 0 L 0.453125 0 L 0.328125 -0.015625 L 0.265625 -0.015625 L 0.1875 -0.03125 L 0.140625 -0.046875 L 0.140625 -0.25 L 0.15625 -0.328125 L 0.140625 -0.375 L 0.15625 -0.40625 L 0.171875 -0.5 L 0.203125 -0.78125 L 0.21875 -0.875 L 0.234375 -0.90625 L 0.28125 -0.953125 L 0.46875 -0.953125 L 0.640625 -0.9375 L 0.703125 -0.9375 L 0.75 -0.953125 L 0.796875 -0.9375 L 1.03125 -0.9375 L 1.09375 -0.90625 L 1.140625 -0.859375 L 1.15625 -0.765625 L 1.140625 -0.671875 L 1.125 -0.59375 L 1.109375 -0.5 L 1.078125 -0.390625 L 1.078125 -0.3125 L 1.0625 -0.234375 L 1.0625 -0.15625 L 1.046875 -0.109375 L 0.984375 -0.03125 L 0.890625 0 Z M 0.828125 0 "/></g></g></g><g fill="#000000" fill-opacity="1"><g transform="translate(105.153414, 37.27626)"><g><path d="M 0.515625 0.015625 L 0.421875 0 L -0.09375 0 L -0.140625 -0.015625 L -0.15625 -0.078125 L -0.140625 -0.109375 L -0.140625 -0.15625 L -0.109375 -0.234375 L -0.046875 -0.3125 L 0.015625 -0.5 L 0.078125 -0.65625 L 0.15625 -0.8125 L 0.171875 -0.890625 L 0.25 -1.046875 L 0.28125 -1.09375 L 0.3125 -1.171875 L 0.328125 -1.203125 L 0.328125 -1.25 L 0.34375 -1.296875 L 0.375 -1.375 L 0.390625 -1.421875 L 0.4375 -1.515625 L 0.46875 -1.609375 L 0.5 -1.671875 L 0.53125 -1.75 L 0.59375 -1.875 L 0.59375 -1.921875 L 0.609375 -1.953125 L 0.640625 -2 L 0.671875 -2.09375 L 0.6875 -2.125 L 0.734375 -2.3125 L 0.75 -2.359375 L 0.796875 -2.4375 L 0.828125 -2.546875 L 0.875 -2.625 L 0.890625 -2.65625 L 0.90625 -2.734375 L 0.9375 -2.78125 L 0.96875 -2.875 L 0.96875 -2.90625 L 1.015625 -2.984375 L 1.03125 -3.078125 L 1.0625 -3.125 L 1.09375 -3.15625 L 1.140625 -3.296875 L 1.171875 -3.375 L 1.1875 -3.421875 L 1.234375 -3.46875 L 1.25 -3.53125 L 1.265625 -3.578125 L 1.34375 -3.734375 L 1.359375 -3.78125 L 1.375 -3.8125 L 1.390625 -3.859375 L 1.421875 -3.9375 L 1.453125 -3.96875 L 1.453125 -4 L 1.5 -4.125 L 1.546875 -4.203125 L 1.609375 -4.3125 L 1.640625 -4.40625 L 1.671875 -4.46875 L 1.703125 -4.484375 L 1.78125 -4.484375 L 1.890625 -4.46875 L 1.953125 -4.484375 L 2.25 -4.484375 L 2.28125 -4.46875 L 2.34375 -4.484375 L 2.453125 -4.484375 L 2.484375 -4.46875 L 2.53125 -4.4375 L 2.546875 -4.15625 L 2.546875 -4.015625 L 2.5625 -3.984375 L 2.5625 -3.453125 L 2.578125 -3.328125 L 2.578125 -3.234375 L 2.59375 -3.140625 L 2.578125 -3.09375 L 2.578125 -2.953125 L 2.59375 -2.875 L 2.59375 -2.484375 L 2.609375 -2.390625 L 2.625 -2.3125 L 2.625 -2 L 2.640625 -1.9375 L 2.640625 -1.078125 L 2.65625 -0.84375 L 2.65625 -0.71875 L 2.671875 -0.671875 L 2.671875 -0.578125 L 2.65625 -0.484375 L 2.671875 -0.4375 L 2.671875 -0.109375 C 2.671875 -0.0859375 2.671875 -0.0664062 2.671875 -0.046875 C 2.671875 -0.0234375 2.664062 -0.0078125 2.65625 0 C 2.644531 0 2.628906 0 2.609375 0 C 2.597656 0 2.585938 0 2.578125 0 L 2.078125 0 L 2.015625 0.015625 L 1.9375 0 L 1.84375 0 L 1.8125 -0.015625 L 1.796875 -0.078125 L 1.796875 -0.1875 L 1.78125 -0.25 L 1.796875 -0.328125 L 1.796875 -0.625 L 1.78125 -0.671875 L 1.640625 -0.671875 L 1.546875 -0.6875 L 1.265625 -0.703125 L 1.09375 -0.703125 L 1.0625 -0.625 L 1.015625 -0.546875 L 0.984375 -0.453125 L 0.953125 -0.375 L 0.890625 -0.25 L 0.859375 -0.15625 L 0.8125 -0.0625 L 0.78125 -0.015625 L 0.75 0.015625 L 0.5625 0 Z M 1.578125 -1.53125 L 1.765625 -1.53125 L 1.8125 -1.5625 L 1.8125 -2.078125 L 1.828125 -2.125 L 1.828125 -2.53125 L 1.84375 -2.75 L 1.828125 -2.90625 L 1.78125 -2.890625 L 1.71875 -2.703125 L 1.703125 -2.640625 L 1.671875 -2.53125 L 1.640625 -2.484375 L 1.625 -2.421875 L 1.59375 -2.328125 L 1.5625 -2.265625 L 1.53125 -2.171875 L 1.5 -2.03125 L 1.453125 -1.890625 L 1.421875 -1.84375 L 1.390625 -1.734375 L 1.390625 -1.6875 L 1.375 -1.625 L 1.359375 -1.578125 L 1.390625 -1.546875 L 1.453125 -1.546875 L 1.515625 -1.53125 Z M 1.578125 -1.53125 "/></g></g></g><g fill="#000000" fill-opacity="1"><g transform="translate(108.008128, 37.27626)"><g><path d="M 0.84375 0.015625 L 0.609375 0 L 0.328125 0 L 0.28125 -0.015625 L 0.265625 -0.0625 L 0.265625 -0.109375 L 0.28125 -0.171875 L 0.28125 -0.25 L 0.296875 -0.3125 L 0.296875 -0.359375 L 0.3125 -0.390625 L 0.3125 -0.4375 L 0.328125 -0.484375 L 0.328125 -0.5625 L 0.359375 -0.65625 L 0.359375 -0.703125 L 0.375 -0.75 L 0.359375 -0.796875 L 0.390625 -0.859375 L 0.390625 -0.9375 L 0.40625 -1 L 0.40625 -1.09375 L 0.421875 -1.140625 L 0.421875 -1.234375 L 0.46875 -1.359375 L 0.46875 -1.46875 L 0.484375 -1.5625 L 0.484375 -1.625 L 0.5 -1.703125 L 0.515625 -1.75 L 0.515625 -1.859375 L 0.546875 -1.90625 L 0.5625 -1.953125 L 0.5625 -2.0625 L 0.578125 -2.109375 L 0.59375 -2.140625 L 0.59375 -2.1875 L 0.609375 -2.234375 L 0.625 -2.296875 L 0.625 -2.34375 L 0.640625 -2.421875 L 0.65625 -2.515625 L 0.65625 -2.5625 L 0.6875 -2.703125 L 0.6875 -2.78125 L 0.703125 -2.828125 L 0.71875 -2.90625 L 0.71875 -3.03125 L 0.75 -3.109375 L 0.75 -3.203125 L 0.765625 -3.234375 L 0.8125 -3.515625 L 0.828125 -3.5625 L 0.828125 -3.71875 L 0.84375 -3.765625 L 0.859375 -3.84375 L 0.890625 -3.9375 L 0.90625 -4.125 L 0.921875 -4.171875 L 0.921875 -4.265625 L 0.953125 -4.3125 L 0.9375 -4.390625 L 1.015625 -4.46875 L 1.078125 -4.484375 L 1.984375 -4.484375 L 2.078125 -4.46875 L 2.140625 -4.46875 L 2.21875 -4.453125 L 2.3125 -4.453125 L 2.390625 -4.4375 L 2.484375 -4.4375 L 2.546875 -4.421875 L 2.671875 -4.359375 L 2.71875 -4.34375 L 2.8125 -4.296875 L 2.84375 -4.265625 L 2.921875 -4.234375 L 2.984375 -4.171875 L 3 -4.125 L 3.046875 -4.0625 L 3.09375 -3.96875 L 3.109375 -3.859375 L 3.125 -3.734375 L 3.125 -3.703125 L 3.140625 -3.578125 L 3.140625 -3.53125 L 3.125 -3.4375 L 3.125 -3.25 L 3.109375 -3.140625 L 3.09375 -3.046875 L 3.078125 -2.984375 L 3.046875 -2.90625 L 3.03125 -2.859375 L 3.03125 -2.8125 L 3 -2.78125 L 2.96875 -2.703125 L 2.921875 -2.609375 L 2.890625 -2.5625 L 2.875 -2.515625 L 2.8125 -2.421875 L 2.796875 -2.390625 L 2.734375 -2.3125 L 2.703125 -2.28125 L 2.609375 -2.171875 L 2.484375 -2.09375 L 2.390625 -2.046875 L 2.34375 -2.046875 L 2.34375 -1.984375 L 2.390625 -1.84375 L 2.390625 -1.78125 L 2.40625 -1.703125 L 2.4375 -1.65625 L 2.4375 -1.609375 L 2.453125 -1.53125 L 2.46875 -1.484375 L 2.484375 -1.40625 L 2.5 -1.359375 L 2.515625 -1.28125 L 2.53125 -1.234375 L 2.546875 -1.171875 L 2.578125 -1.09375 L 2.578125 -1.0625 L 2.609375 -0.96875 L 2.625 -0.875 L 2.6875 -0.640625 L 2.703125 -0.5625 L 2.75 -0.453125 L 2.75 -0.375 L 2.765625 -0.328125 L 2.8125 -0.140625 L 2.796875 -0.0625 L 2.765625 -0.0625 L 2.703125 -0.046875 L 2.609375 -0.046875 L 2.484375 -0.03125 L 2.3125 0 L 2.015625 0 L 1.953125 -0.0625 L 1.9375 -0.09375 L 1.921875 -0.171875 L 1.90625 -0.203125 L 1.890625 -0.265625 L 1.84375 -0.359375 L 1.84375 -0.421875 L 1.828125 -0.46875 L 1.8125 -0.484375 L 1.8125 -0.5625 L 1.78125 -0.609375 L 1.78125 -0.65625 L 1.765625 -0.703125 L 1.765625 -0.75 L 1.75 -0.8125 L 1.71875 -0.875 L 1.71875 -0.953125 L 1.671875 -1.0625 L 1.671875 -1.109375 L 1.640625 -1.1875 L 1.640625 -1.234375 L 1.625 -1.3125 L 1.59375 -1.40625 L 1.59375 -1.5 L 1.578125 -1.53125 L 1.5625 -1.609375 L 1.546875 -1.671875 L 1.515625 -1.734375 L 1.484375 -1.828125 L 1.453125 -1.859375 L 1.40625 -1.859375 L 1.40625 -1.84375 L 1.390625 -1.796875 L 1.375 -1.703125 L 1.359375 -1.65625 L 1.34375 -1.53125 L 1.34375 -1.421875 L 1.3125 -1.328125 L 1.296875 -1.25 L 1.296875 -1.203125 L 1.28125 -1.109375 L 1.265625 -1.0625 L 1.265625 -0.921875 L 1.25 -0.875 L 1.21875 -0.75 L 1.21875 -0.6875 L 1.203125 -0.65625 L 1.203125 -0.609375 L 1.1875 -0.515625 L 1.1875 -0.46875 L 1.171875 -0.421875 L 1.171875 -0.21875 L 1.15625 -0.171875 L 1.15625 -0.109375 L 1.140625 -0.0625 L 1.109375 0 L 0.890625 0 Z M 1.671875 -2.625 L 1.78125 -2.625 L 1.859375 -2.640625 L 1.890625 -2.671875 L 1.953125 -2.703125 L 2 -2.734375 L 2.046875 -2.78125 L 2.078125 -2.828125 L 2.125 -2.859375 L 2.171875 -3 L 2.171875 -3.03125 L 2.21875 -3.125 L 2.21875 -3.171875 L 2.234375 -3.234375 L 2.25 -3.328125 L 2.21875 -3.609375 L 2.1875 -3.671875 L 2.140625 -3.703125 L 2.078125 -3.734375 L 1.9375 -3.765625 L 1.78125 -3.765625 L 1.734375 -3.75 L 1.703125 -3.671875 L 1.6875 -3.625 L 1.671875 -3.53125 L 1.671875 -3.34375 L 1.65625 -3.296875 L 1.640625 -3.203125 L 1.640625 -3.15625 L 1.625 -3.0625 L 1.609375 -3 L 1.609375 -2.9375 L 1.59375 -2.890625 L 1.578125 -2.78125 L 1.5625 -2.734375 L 1.578125 -2.6875 L 1.5625 -2.640625 Z M 1.671875 -2.625 "/></g></g></g></svg>