<svg xmlns="http://www.w3.org/2000/svg" xmlns:xlink="http://www.w3.org/1999/xlink" width="400" zoomAndPan="magnify" viewBox="0 0 300 299.999988" height="400" preserveAspectRatio="xMidYMid meet" version="1.0"><defs><g/></defs><g fill="#004aad" fill-opacity="1"><g transform="translate(96.556251, 164.249987)"><g><path d="M 2.421875 0.09375 L 1.71875 0 L 1.46875 -0.578125 L 1.578125 -0.953125 L 1.578125 -1.71875 L 1.671875 -2.46875 L 1.859375 -3.140625 L 1.90625 -3.46875 L 2.046875 -4.140625 L 2.140625 -4.375 L 2.28125 -5.046875 L 2.375 -5.46875 L 2.515625 -6.234375 L 2.515625 -6.5625 L 2.625 -6.953125 L 2.625 -7.5625 L 2.8125 -7.90625 L 2.859375 -8.46875 L 2.90625 -8.8125 L 3.046875 -9.375 L 3.09375 -9.671875 L 3.046875 -10 L 3.140625 -10.609375 L 3.328125 -11.375 L 3.421875 -11.953125 L 3.515625 -12.375 L 3.671875 -12.90625 L 3.765625 -13.46875 L 3.8125 -13.8125 L 3.90625 -14.09375 L 3.953125 -14.71875 L 4 -15 L 4 -15.28125 L 4.234375 -15.859375 L 4.28125 -16.140625 L 4.328125 -16.46875 L 4.375 -17.140625 L 4.421875 -17.609375 L 4.671875 -18.1875 L 4.765625 -18.5625 L 4.859375 -19.046875 L 4.859375 -19.703125 L 4.90625 -20.09375 L 5.046875 -20.46875 L 5.046875 -20.859375 L 5.1875 -21.1875 L 5.1875 -21.515625 L 5.28125 -21.859375 L 5.375 -22.46875 L 5.515625 -23 L 5.671875 -23.421875 L 5.671875 -24 L 5.71875 -24.328125 L 5.8125 -24.609375 L 6.046875 -25.953125 L 6.046875 -26.28125 L 6.234375 -26.703125 L 6.328125 -27.140625 L 6.375 -27.75 L 6.421875 -28.09375 L 6.46875 -28.375 L 6.515625 -28.703125 L 6.625 -29 L 6.671875 -29.328125 L 6.765625 -29.953125 L 6.859375 -30.515625 L 7 -31.140625 L 7 -31.515625 L 7.140625 -32.140625 L 7.234375 -32.421875 L 7.375 -32.65625 L 7.671875 -33.1875 L 8.140625 -33.28125 L 8.8125 -33.328125 L 9.609375 -33.28125 L 10.046875 -33.28125 L 10.671875 -33.328125 L 11.5625 -33.28125 L 12.140625 -33.328125 L 12.859375 -33.28125 L 13.515625 -33.28125 L 14.046875 -33.140625 L 14.328125 -32.703125 L 14.375 -32.375 L 14.5625 -31.890625 L 14.65625 -31.328125 L 14.71875 -30.796875 L 14.90625 -30.140625 L 15.09375 -29 L 15.234375 -28.234375 L 15.375 -27.421875 L 15.515625 -26.75 L 15.71875 -25.796875 L 15.8125 -25.421875 L 15.859375 -25.09375 L 15.953125 -24.375 L 16.09375 -23.75 L 16.09375 -23.46875 L 16.234375 -22.953125 L 16.234375 -22.609375 L 16.28125 -22.09375 L 16.421875 -21.375 L 16.515625 -20.5625 L 16.65625 -19.765625 L 16.703125 -19 L 16.8125 -18.328125 L 16.90625 -17.953125 L 17.046875 -16.65625 L 17.234375 -15.5625 L 17.328125 -14.515625 L 17.328125 -14.1875 L 17.421875 -13.859375 L 17.515625 -13.28125 L 17.65625 -12 L 17.8125 -10.953125 L 17.953125 -10.953125 L 18 -11.90625 L 18.09375 -13.046875 L 18.09375 -13.71875 L 18.234375 -16 L 18.375 -17 L 18.375 -18.609375 L 18.515625 -19.28125 L 18.5625 -19.5625 L 18.609375 -19.90625 L 18.65625 -20.28125 L 18.703125 -20.953125 L 18.8125 -21.234375 L 18.90625 -21.90625 L 18.90625 -22.1875 L 19.09375 -22.8125 L 19.09375 -23.375 L 19.140625 -23.953125 L 19.140625 -24.28125 L 19.421875 -24.859375 L 19.375 -25.1875 L 19.515625 -26.046875 L 19.515625 -26.328125 L 19.65625 -26.953125 L 19.703125 -27.28125 L 19.8125 -27.5625 L 19.90625 -28.234375 L 19.953125 -28.609375 L 20.09375 -29.28125 L 20.1875 -29.609375 L 20.328125 -30 L 20.328125 -30.421875 L 20.375 -30.703125 L 20.515625 -31.46875 L 20.703125 -32.46875 L 21.09375 -33.140625 L 21.28125 -33.28125 L 22.1875 -33.46875 L 23.1875 -33.375 L 23.515625 -33.421875 L 24 -33.421875 L 25.09375 -33.375 L 25.5625 -33.375 L 26.234375 -33.421875 L 26.90625 -33.28125 L 27.1875 -33.140625 L 27.234375 -32.75 L 27.234375 -32.375 L 27.09375 -31.703125 L 27.140625 -31.328125 L 27 -30.28125 L 26.90625 -29.609375 L 26.609375 -28.46875 L 26.46875 -27.953125 L 26.328125 -27.09375 L 26.234375 -26.703125 L 26.09375 -25.703125 L 25.90625 -24.953125 L 25.796875 -24.1875 L 25.65625 -23.75 L 25.5625 -23.375 L 25.46875 -23.046875 L 25.46875 -22.421875 L 25.375 -22.09375 L 25.1875 -20.65625 L 25.046875 -20.234375 L 25 -19.703125 L 24.953125 -19.375 L 24.703125 -18.375 L 24.609375 -18.046875 L 24.46875 -17.421875 L 24.375 -16.765625 L 24.28125 -16.375 L 24.328125 -15.953125 L 24.234375 -15.65625 L 24.1875 -15.328125 L 24.09375 -15.046875 L 24.046875 -14.71875 L 24 -14.421875 L 24 -13.8125 L 23.859375 -13.515625 L 23.703125 -12.859375 L 23.609375 -12.421875 L 23.5625 -12 L 23.515625 -11.71875 L 23.46875 -11.375 L 23.421875 -11.09375 L 23.421875 -10.8125 L 23.234375 -10.140625 L 23.140625 -9.46875 L 23.046875 -9 L 22.859375 -8.5625 L 22.65625 -8 L 22.609375 -7.46875 L 22.5625 -6.859375 L 22.46875 -6.234375 L 22.328125 -5.859375 L 22.140625 -5.1875 L 22.140625 -4.421875 L 21.90625 -3.8125 L 21.90625 -3.515625 L 21.8125 -3.1875 L 21.65625 -2.578125 L 21.421875 -1.046875 L 21 -0.46875 L 20.515625 -0.140625 L 19.859375 -0.09375 L 19.328125 0 L 19.140625 0 L 18.234375 -0.046875 L 17.90625 0 L 17.421875 -0.046875 L 17.140625 0 L 16.1875 0 L 15.5625 -0.046875 L 14.765625 -0.046875 L 14.375 -0.375 L 14 -1.140625 L 13.765625 -1.8125 L 13.71875 -2.046875 L 13.65625 -2.625 L 13.609375 -2.90625 L 13.515625 -3.90625 L 13.46875 -4.1875 L 13.28125 -5.1875 L 13.234375 -5.46875 L 13.140625 -6.140625 L 13.09375 -6.859375 L 12.953125 -7.375 L 12.8125 -8.09375 L 12.8125 -8.375 L 12.671875 -9.046875 L 12.609375 -9.328125 L 12.46875 -10 L 12.421875 -10.28125 L 12.421875 -11 L 12.234375 -11.953125 L 12.140625 -12.859375 L 11.953125 -14.1875 L 11.71875 -15.71875 L 11.5625 -17.046875 L 11.28125 -18.765625 L 11 -20.5625 L 10.859375 -20.5625 L 10.8125 -19.234375 L 10.765625 -18.28125 L 10.71875 -17.765625 L 10.609375 -16.953125 L 10.5625 -15.765625 L 10.234375 -13.46875 L 10.046875 -11.609375 L 9.953125 -11.328125 L 9.8125 -10.71875 L 9.90625 -10.375 L 9.765625 -9.8125 L 9.671875 -9.46875 L 9.71875 -9.140625 L 9.671875 -8.859375 L 9.5625 -8.1875 L 9.375 -7.46875 L 9.1875 -6.515625 L 9.09375 -5.859375 L 9.046875 -5.5625 L 8.953125 -5.234375 L 8.765625 -3.859375 L 8.625 -3.234375 L 8.5625 -2.90625 L 8.5625 -2.28125 L 8.46875 -2 L 8.328125 -1.140625 L 8.140625 -0.578125 L 8 -0.09375 L 7.46875 0.09375 Z M 2.421875 0.09375 "/></g></g></g><g fill="#004aad" fill-opacity="1"><g transform="translate(122.213468, 164.249987)"><g><path d="M 7 0.046875 L 6.09375 0 L 4.859375 0 L 4.515625 -0.046875 L 2 -0.046875 L 1.578125 -0.140625 L 1.421875 -0.578125 L 1.578125 -1 L 1.671875 -1.421875 L 1.765625 -2.140625 L 1.859375 -2.90625 L 2.046875 -3.625 L 2.09375 -4.375 L 2.234375 -4.765625 L 2.234375 -5.1875 L 2.328125 -5.515625 L 2.328125 -5.859375 L 2.421875 -6.234375 L 2.46875 -6.5625 L 2.515625 -7.234375 L 2.625 -7.859375 L 2.8125 -8.234375 L 2.90625 -9 L 2.90625 -9.328125 L 3 -9.71875 L 3.09375 -10.328125 L 3.09375 -10.5625 L 3.28125 -11.140625 L 3.234375 -11.421875 L 3.375 -12.046875 L 3.515625 -12.375 L 3.578125 -12.71875 L 3.71875 -13.421875 L 3.8125 -13.765625 L 4 -14.765625 L 4 -15.46875 L 4.1875 -16.140625 L 4.28125 -16.859375 L 4.421875 -17.1875 L 4.46875 -17.5625 L 4.515625 -17.90625 L 4.515625 -18.234375 L 4.71875 -18.515625 L 5 -19.953125 L 5.140625 -20.328125 L 5.234375 -20.65625 L 5.1875 -20.953125 L 5.328125 -21.609375 L 5.515625 -22.328125 L 5.5625 -23.65625 L 5.71875 -24 L 5.765625 -25 L 5.953125 -25.28125 L 6.046875 -25.65625 L 6.09375 -26 L 6.046875 -26.28125 L 6.09375 -26.609375 L 6.28125 -27.234375 L 6.375 -27.90625 L 6.515625 -28.1875 L 6.515625 -28.515625 L 6.671875 -28.84375 L 6.625 -29.140625 L 6.71875 -29.46875 L 6.765625 -30.09375 L 6.859375 -30.375 L 6.90625 -30.65625 L 6.953125 -31.28125 L 7 -31.5625 L 6.90625 -31.890625 L 7.046875 -32.46875 L 7.1875 -32.75 L 7.234375 -33.046875 L 7.625 -33.328125 L 8.421875 -33.328125 L 8.71875 -33.375 L 9.046875 -33.328125 L 9.609375 -33.375 L 9.953125 -33.375 L 10.328125 -33.328125 L 10.8125 -33.328125 L 11.859375 -33.375 L 15.421875 -33.421875 L 16.515625 -33.375 L 16.90625 -33.328125 L 18.28125 -33.375 L 19.328125 -33.375 L 19.765625 -33.421875 L 20.234375 -33.375 L 20.65625 -33.328125 L 20.90625 -33 L 20.75 -32.46875 L 20.75 -32.1875 L 20.65625 -31 L 20.65625 -30.703125 L 20.515625 -30.375 L 20.46875 -30.046875 L 20.421875 -29.75 L 20.28125 -29.046875 L 20.28125 -28.65625 L 20.09375 -28 L 20.046875 -27.703125 L 19.90625 -27.09375 L 19.421875 -27.046875 L 17.421875 -27.046875 L 16.859375 -27 L 13.765625 -27 L 12.609375 -26.953125 L 12.46875 -26.375 L 12.421875 -26.046875 L 12.421875 -25.375 L 12.28125 -25.09375 L 12.28125 -24.703125 L 12.140625 -23.796875 L 12.046875 -23.140625 L 11.90625 -22.46875 L 11.8125 -22.140625 L 11.859375 -21.75 L 11.71875 -21.28125 L 11.609375 -20.421875 L 12.46875 -20.421875 L 14.140625 -20.375 L 15.046875 -20.46875 L 16.28125 -20.46875 L 16.65625 -20.375 L 16.953125 -20 L 16.859375 -19.421875 L 16.859375 -19.046875 L 16.765625 -18.515625 L 16.609375 -17.859375 L 16.515625 -17.515625 L 16.375 -16.8125 L 16.375 -16.46875 L 16.234375 -16.09375 L 16.140625 -15.421875 L 16 -14.65625 L 15.90625 -14 L 15.8125 -13.90625 L 15.328125 -13.90625 L 14.609375 -13.859375 L 14.1875 -13.859375 L 13 -13.8125 L 12.1875 -13.859375 L 11.671875 -13.859375 L 11.046875 -13.8125 L 10.609375 -13.8125 L 10.421875 -13.28125 L 10.28125 -12.671875 L 10.09375 -11.328125 L 9.953125 -10.859375 L 9.859375 -10.421875 L 9.8125 -9.953125 L 9.71875 -9.609375 L 9.5625 -8.765625 L 9.375 -7.515625 L 9.375 -7.140625 L 9.5625 -6.953125 L 10.234375 -6.859375 L 13.046875 -6.859375 L 13.71875 -6.8125 L 14.765625 -6.765625 L 16.09375 -6.8125 L 16.421875 -6.671875 L 16.375 -6.28125 L 16.328125 -6.09375 L 16.234375 -5.5625 L 16.1875 -5.1875 L 16 -4.140625 L 16 -3.515625 L 15.90625 -3.1875 L 15.8125 -2.90625 L 15.765625 -2.578125 L 15.609375 -1.859375 L 15.5625 -1.046875 L 15.46875 -0.625 L 15.328125 -0.09375 L 10.8125 -0.09375 L 10.046875 -0.046875 L 9.421875 -0.09375 L 9.140625 -0.046875 L 8.140625 -0.046875 L 7.375 0 Z M 7 0.046875 "/></g></g></g><g fill="#004aad" fill-opacity="1"><g transform="translate(141.444713, 164.249987)"><g><path d="M 5.90625 0.140625 L 5.46875 0 L 5.140625 0 L 4.71875 -0.375 L 4.8125 -1.09375 L 4.859375 -2.09375 L 5.1875 -3.09375 L 5.28125 -3.421875 L 5.328125 -4.140625 L 5.421875 -4.421875 L 5.46875 -5.09375 L 5.46875 -5.421875 L 5.71875 -6.09375 L 5.765625 -6.421875 L 5.71875 -6.8125 L 5.953125 -7.8125 L 5.953125 -8.1875 L 6.09375 -8.765625 L 6.234375 -9.46875 L 6.328125 -9.8125 L 6.375 -10.140625 L 6.46875 -10.765625 L 6.5625 -11.046875 L 6.625 -11.71875 L 6.859375 -12.1875 L 6.765625 -12.671875 L 6.8125 -13 L 6.90625 -13.328125 L 7.140625 -14 L 7.328125 -14.71875 L 7.421875 -15.046875 L 7.328125 -15.375 L 7.5625 -15.953125 L 7.671875 -16.234375 L 7.671875 -16.90625 L 7.8125 -17.375 L 7.8125 -17.8125 L 7.90625 -18.140625 L 8.09375 -18.421875 L 8.09375 -18.765625 L 8.1875 -19.046875 L 8.328125 -19.765625 L 8.28125 -20.09375 L 8.515625 -20.609375 L 8.515625 -21.09375 L 8.625 -21.328125 L 8.625 -21.703125 L 8.671875 -22.046875 L 8.765625 -22.375 L 9 -23.140625 L 9.046875 -23.421875 L 9.046875 -23.703125 L 9.09375 -24.046875 L 9.09375 -24.328125 L 9.234375 -24.953125 L 9.328125 -25.28125 L 9.421875 -26 L 9.46875 -26.75 L 6.90625 -26.75 L 6.234375 -26.796875 L 5.90625 -26.75 L 5.46875 -26.75 L 5 -26.796875 L 4.625 -26.796875 L 4.1875 -26.953125 L 4.046875 -27.375 L 4.140625 -27.953125 L 4.28125 -28.328125 L 4.28125 -28.703125 L 4.234375 -29.046875 L 4.421875 -29.703125 L 4.515625 -30 L 4.578125 -30.65625 L 4.765625 -31.28125 L 4.90625 -31.5625 L 4.90625 -32.234375 L 4.953125 -32.515625 L 5.1875 -33.046875 L 5.625 -33.375 L 5.953125 -33.421875 L 7.1875 -33.421875 L 7.421875 -33.375 L 7.765625 -33.375 L 8.09375 -33.421875 L 11.609375 -33.421875 L 11.953125 -33.375 L 13 -33.375 L 16.046875 -33.421875 L 16.765625 -33.375 L 17.765625 -33.421875 L 18.1875 -33.375 L 21.140625 -33.375 L 21.8125 -33.328125 L 22.234375 -33.234375 L 22.328125 -32.84375 L 22.328125 -32.5625 L 22.28125 -32.234375 L 22.1875 -31.84375 L 22.1875 -31.515625 L 22.140625 -31.234375 L 22.046875 -30.90625 L 22.046875 -30.609375 L 21.953125 -30.046875 L 21.859375 -29.703125 L 21.8125 -29.421875 L 21.75 -28.84375 L 21.5625 -28.234375 L 21.46875 -27.90625 L 21.421875 -27.234375 L 21.234375 -26.796875 L 20.75 -26.75 L 20.328125 -26.796875 L 19.765625 -26.796875 L 19.328125 -26.75 L 18.859375 -26.75 L 16.859375 -26.796875 L 16.421875 -26.75 L 16.328125 -26.421875 L 16.375 -26.140625 L 16.234375 -25.796875 L 16.234375 -25.515625 L 16.140625 -25.234375 L 16.046875 -24.609375 L 16 -24.28125 L 15.8125 -23.421875 L 15.609375 -23.046875 L 15.71875 -22.8125 L 15.46875 -22.140625 L 15.28125 -21.515625 L 15.28125 -21.234375 L 15.234375 -20.65625 L 15.1875 -20.375 L 15.1875 -20.046875 L 14.953125 -19.46875 L 14.859375 -18.765625 L 14.765625 -18.421875 L 14.609375 -17.765625 L 14.46875 -17.46875 L 14.46875 -17.140625 L 14.421875 -16.515625 L 14.28125 -15.953125 L 14.09375 -15.609375 L 14.046875 -14.953125 L 13.953125 -14.65625 L 13.953125 -14.375 L 13.8125 -13.71875 L 13.65625 -13 L 13.5625 -12.5625 L 13.5625 -12.09375 L 13.515625 -11.8125 L 13.421875 -11.515625 L 13.375 -11.1875 L 13.1875 -10.609375 L 13.140625 -10.28125 L 13.09375 -10 L 13.140625 -9.671875 L 13 -9 L 12.859375 -8.234375 L 12.671875 -7.625 L 12.609375 -7.28125 L 12.46875 -6.671875 L 12.234375 -5.671875 L 12.140625 -5.28125 L 12 -4.625 L 12.046875 -4.234375 L 11.8125 -3.1875 L 11.515625 -1.859375 L 11.421875 -1.1875 L 11.28125 -0.53125 L 11.1875 -0.234375 L 10.609375 0 L 6.46875 0 Z M 5.90625 0.140625 "/></g></g></g><g fill="#004aad" fill-opacity="1"><g transform="translate(160.53301, 164.249987)"><g><path d="M 9.421875 0.625 L 8.28125 0.53125 L 7.953125 0.46875 L 7.46875 0.46875 L 6.953125 0.375 L 6.46875 0.28125 L 6.140625 0.1875 L 5.375 -0.140625 L 4.859375 -0.328125 L 4.375 -0.671875 L 3.8125 -1.046875 L 3.328125 -1.671875 L 2.859375 -2.234375 L 2.421875 -2.90625 L 2.09375 -3.71875 L 2 -4.09375 L 1.671875 -4.953125 L 1.625 -5.234375 L 1.46875 -5.90625 L 1.421875 -6.1875 L 1.328125 -6.953125 L 1.328125 -8.375 L 1.375 -9.1875 L 1.328125 -9.515625 L 1.421875 -10.234375 L 1.46875 -10.609375 L 1.578125 -10.953125 L 1.71875 -11.71875 L 2.375 -12.046875 L 3.515625 -12.140625 L 4.09375 -12.09375 L 6.765625 -12.09375 L 7.375 -12.046875 L 7.765625 -11.375 L 7.765625 -9.609375 L 7.71875 -9.28125 L 7.71875 -8.28125 L 7.8125 -7.234375 L 7.953125 -6.765625 L 8.28125 -6.046875 L 8.765625 -5.5625 L 9.375 -5.421875 L 9.8125 -5.421875 L 10.1875 -5.515625 L 10.71875 -5.671875 L 10.953125 -5.90625 L 11.1875 -6.328125 L 11.375 -6.671875 L 11.5625 -7.234375 L 11.671875 -7.8125 L 11.71875 -8.28125 L 11.71875 -8.625 L 11.671875 -9.28125 L 11.671875 -10.046875 L 11.46875 -10.90625 L 11.46875 -11.1875 L 11.328125 -11.90625 L 10.953125 -12.5625 L 10.5625 -13.140625 L 10.234375 -13.8125 L 10.046875 -14.09375 L 9.953125 -14.328125 L 9.8125 -14.5625 L 9.46875 -14.90625 L 9.234375 -15.28125 L 8.71875 -15.90625 L 8.46875 -16.140625 L 8.28125 -16.421875 L 7.765625 -17.046875 L 7.1875 -17.65625 L 6.765625 -18.28125 L 6.28125 -18.8125 L 5.8125 -19.1875 L 5.5625 -19.515625 L 5.28125 -20 L 5 -20.703125 L 4.8125 -21.140625 L 4.578125 -21.46875 L 4.421875 -21.8125 L 4.328125 -22.1875 L 4.140625 -22.8125 L 4.09375 -23.421875 L 4.046875 -23.796875 L 4.09375 -24.140625 L 4.09375 -25.515625 L 4.1875 -26.46875 L 4.328125 -26.796875 L 4.375 -27.46875 L 4.578125 -27.796875 L 4.71875 -28.28125 L 4.765625 -28.75 L 5.046875 -29.375 L 5.234375 -29.75 L 5.375 -30.09375 L 5.515625 -30.328125 L 5.90625 -30.75 L 6.046875 -30.953125 L 6.328125 -31.421875 L 6.625 -31.703125 L 7.1875 -32.1875 L 8.046875 -32.796875 L 8.8125 -33.09375 L 9.328125 -33.375 L 10.234375 -33.5625 L 11.046875 -33.796875 L 12.515625 -33.796875 L 13.71875 -33.75 L 14.046875 -33.75 L 14.46875 -33.65625 L 15.1875 -33.609375 L 16 -33.375 L 16.328125 -33.328125 L 16.515625 -33.1875 L 17.09375 -32.890625 L 17.421875 -32.609375 L 17.8125 -32.46875 L 18.328125 -32 L 18.46875 -31.796875 L 18.953125 -31.28125 L 19.09375 -31.046875 L 19.421875 -30.515625 L 19.609375 -30.234375 L 19.703125 -29.703125 L 19.859375 -29.375 L 20.140625 -28.234375 L 20.140625 -27.1875 L 20.1875 -26.234375 L 20.140625 -25.421875 L 19.953125 -24.09375 L 19.765625 -23.046875 L 19.1875 -22.75 L 18.328125 -22.703125 L 15.65625 -22.703125 L 15 -22.75 L 14.328125 -22.75 L 13.953125 -23.09375 L 13.90625 -23.703125 L 14 -24.09375 L 14.140625 -25.5625 L 14.140625 -26.65625 L 14.046875 -27.234375 L 13.90625 -27.515625 L 13.46875 -27.953125 L 13 -28.328125 L 12.375 -28.421875 L 11.8125 -28.234375 L 11.28125 -28 L 11.046875 -27.65625 L 10.90625 -27.328125 L 10.71875 -26.859375 L 10.671875 -26.515625 L 10.515625 -26.046875 L 10.46875 -25.375 L 10.46875 -24.75 L 10.515625 -24.421875 L 10.859375 -23.515625 L 11.234375 -22.859375 L 11.421875 -22.46875 L 11.765625 -21.859375 L 12.28125 -21.1875 L 12.90625 -20.421875 L 13.09375 -20.140625 L 13.328125 -19.90625 L 13.515625 -19.515625 L 13.71875 -19.28125 L 14 -19.09375 L 14.46875 -18.703125 L 14.609375 -18.421875 L 14.859375 -18.28125 L 15 -18.046875 L 15.421875 -17.5625 L 15.65625 -17.140625 L 16.234375 -16.5625 L 16.5625 -15.765625 L 17 -15.234375 L 17.046875 -15 L 17.421875 -14.046875 L 17.703125 -13.421875 L 18 -12.421875 L 18.046875 -12.09375 L 18.09375 -11.71875 L 18.140625 -11.375 L 18.375 -10.5625 L 18.46875 -10.28125 L 18.421875 -9.609375 L 18.375 -9.328125 L 18.421875 -9 L 18.375 -8.671875 L 18.375 -7.328125 L 18.234375 -6.671875 L 18.1875 -6.375 L 18.1875 -5.671875 L 18 -5.046875 L 17.90625 -4.671875 L 17.8125 -4.234375 L 17.5625 -3.578125 L 17.140625 -2.765625 L 16.859375 -2.578125 L 16.609375 -2.09375 L 16.375 -1.90625 L 16 -1.46875 L 15.765625 -1.28125 L 15.375 -0.953125 L 14.90625 -0.671875 L 14.46875 -0.328125 L 13.90625 -0.1875 L 13.609375 0 L 12.90625 0.234375 L 12.515625 0.28125 L 11.90625 0.46875 L 11.5625 0.53125 L 11.140625 0.46875 L 10.8125 0.53125 L 10.28125 0.53125 L 9.953125 0.578125 Z M 9.421875 0.625 "/></g></g></g><g fill="#004aad" fill-opacity="1"><g transform="translate(179.478417, 164.249987)"><g><path d="M 16.1875 0.09375 L 15.8125 0 L 14.515625 0 L 14 -0.046875 L 13.65625 -0.046875 L 13.328125 -0.09375 L 13.046875 -0.53125 L 13.09375 -0.90625 L 13.140625 -1.328125 L 13.234375 -1.765625 L 13.421875 -2.09375 L 13.421875 -2.765625 L 13.609375 -3.765625 L 13.65625 -4.09375 L 13.65625 -4.421875 L 13.71875 -4.765625 L 13.765625 -5.375 L 13.859375 -5.625 L 13.90625 -6.28125 L 14.046875 -7 L 14.140625 -7.90625 L 14.421875 -9.328125 L 14.609375 -9.859375 L 14.71875 -10.328125 L 14.71875 -10.90625 L 14.859375 -11.5625 L 14.953125 -11.90625 L 15.046875 -12.5625 L 15.046875 -12.90625 L 15.140625 -13.46875 L 14.71875 -13.421875 L 14.375 -13.421875 L 13.953125 -13.515625 L 12.421875 -13.375 L 11.71875 -13.515625 L 10.90625 -13.5625 L 10.859375 -13.328125 L 10.8125 -12.953125 L 10.609375 -12.28125 L 10.515625 -11.671875 L 10.328125 -11.328125 L 10.328125 -10.515625 L 10.234375 -10.1875 L 10 -9.09375 L 9.71875 -8.046875 L 9.765625 -7.765625 L 9.515625 -7.1875 L 9.46875 -6.953125 L 9.28125 -6.328125 L 9.1875 -5.625 L 8.90625 -4.28125 L 8.859375 -3.90625 L 8.71875 -3.234375 L 8.71875 -2.90625 L 8.625 -2.234375 L 8.515625 -1.859375 L 8.46875 -1.53125 L 8.375 -0.8125 L 8.140625 -0.328125 L 7.765625 -0.140625 L 7.328125 -0.09375 L 6.765625 -0.046875 L 6.046875 0.046875 L 5.671875 0.046875 L 5.328125 -0.09375 L 5 -0.046875 L 4.671875 0.046875 L 4.09375 -0.046875 L 2.578125 -0.046875 L 1.625 -0.140625 L 1.421875 -0.671875 L 1.421875 -1.046875 L 1.625 -1.46875 L 1.859375 -2.09375 L 1.90625 -2.578125 L 2 -3 L 2 -3.328125 L 2.09375 -3.625 L 2 -3.953125 L 2.28125 -4.46875 L 2.375 -4.8125 L 2.328125 -5.1875 L 2.515625 -5.859375 L 2.46875 -6.515625 L 2.671875 -6.859375 L 2.859375 -7.28125 L 2.90625 -7.625 L 2.90625 -8 L 3.046875 -8.671875 L 3.140625 -9.046875 L 3.375 -10.71875 L 3.46875 -11 L 3.515625 -11.28125 L 3.625 -11.671875 L 3.578125 -12 L 3.765625 -12.671875 L 3.8125 -13.28125 L 3.953125 -13.765625 L 4.046875 -14.328125 L 4.046875 -14.65625 L 4.140625 -15.375 L 4.28125 -15.71875 L 4.421875 -16.09375 L 4.421875 -16.46875 L 4.625 -17.140625 L 4.859375 -18.515625 L 4.90625 -18.8125 L 5 -19.46875 L 5.046875 -20.140625 L 5.328125 -20.8125 L 5.375 -21.140625 L 5.421875 -21.8125 L 5.625 -22.8125 L 5.71875 -23.421875 L 5.8125 -23.796875 L 5.953125 -24.796875 L 6 -25.046875 L 6 -25.703125 L 6.1875 -26.09375 L 6.234375 -26.46875 L 6.28125 -26.75 L 6.421875 -27.375 L 6.421875 -28.375 L 6.765625 -29 L 6.71875 -29.65625 L 6.8125 -30 L 6.859375 -30.328125 L 7 -30.65625 L 6.953125 -31.046875 L 7.046875 -31.375 L 7.1875 -32 L 7.234375 -32.5625 L 7.28125 -33.09375 L 7.71875 -33.328125 L 8.90625 -33.328125 L 10.859375 -33.375 L 11.515625 -33.328125 L 12.5625 -33.328125 L 13.046875 -33.46875 L 13.609375 -33.375 L 14.09375 -33.28125 L 14.1875 -32.84375 L 14.1875 -32.5625 L 14.234375 -32.234375 L 14.09375 -31.65625 L 14.046875 -31.375 L 14 -30.703125 L 13.859375 -30.28125 L 13.8125 -29.84375 L 13.609375 -28.953125 L 13.515625 -28.28125 L 13.46875 -27.703125 L 13.328125 -27.375 L 13.328125 -26.609375 L 13.234375 -26.28125 L 13.140625 -25.90625 L 13.09375 -25.28125 L 13 -25.046875 L 12.953125 -24.46875 L 12.953125 -24.1875 L 12.859375 -23.953125 L 12.765625 -23.5625 L 12.71875 -23.234375 L 12.5625 -22.953125 L 12.609375 -22.609375 L 12.46875 -22 L 12.375 -21.65625 L 12.421875 -21.375 L 12.328125 -21 L 12.28125 -20.703125 L 12.1875 -20.328125 L 12.515625 -20.28125 L 12.90625 -20.28125 L 14.28125 -20.234375 L 14.65625 -20.28125 L 15.234375 -20.234375 L 15.609375 -20.28125 L 16.609375 -20.234375 L 16.65625 -20.46875 L 16.765625 -21 L 16.953125 -21.421875 L 16.953125 -21.75 L 17 -22.09375 L 17.234375 -22.8125 L 17.140625 -23.09375 L 17.375 -23.703125 L 17.421875 -24 L 17.46875 -24.328125 L 17.515625 -24.703125 L 17.5625 -25.046875 L 17.65625 -25.328125 L 17.65625 -25.65625 L 17.8125 -26.28125 L 17.859375 -26.90625 L 18.046875 -27.328125 L 18.046875 -27.90625 L 18 -28.28125 L 18.046875 -28.609375 L 18.234375 -29.28125 L 18.234375 -29.65625 L 18.375 -30.28125 L 18.46875 -30.5625 L 18.5625 -31.1875 L 18.609375 -31.46875 L 18.8125 -31.890625 L 18.90625 -32.234375 L 18.859375 -32.5625 L 18.90625 -32.84375 L 19.28125 -33.28125 L 19.5625 -33.328125 L 20 -33.375 L 21.703125 -33.375 L 22.65625 -33.328125 L 24 -33.328125 L 24.75 -33.234375 L 25.09375 -33.09375 L 25.421875 -32.65625 L 25.375 -32.375 L 25.421875 -32.046875 L 25.234375 -31.75 L 25.28125 -31.5625 L 25.234375 -31.28125 L 25.234375 -30.953125 L 25.046875 -30.375 L 25 -29.703125 L 25 -29.328125 L 24.953125 -29 L 24.859375 -28.65625 L 24.75 -28.28125 L 24.703125 -27.65625 L 24.703125 -27.328125 L 24.609375 -26.703125 L 24.5625 -26.375 L 24.421875 -25.75 L 24.375 -25.421875 L 24.28125 -25.09375 L 24.234375 -24.703125 L 24.140625 -24.09375 L 24.09375 -23.796875 L 23.859375 -23.234375 L 23.796875 -22.953125 L 23.703125 -22.328125 L 23.609375 -21.5625 L 23.5625 -20.859375 L 23.328125 -20.1875 L 23.28125 -19.46875 L 23.234375 -19.1875 L 23.09375 -18.515625 L 23.046875 -18.1875 L 22.859375 -17.90625 L 22.859375 -17.515625 L 22.953125 -17.1875 L 22.8125 -16.90625 L 22.75 -16.5625 L 22.75 -15.953125 L 22.703125 -15.609375 L 22.46875 -15 L 22.421875 -14.65625 L 22.234375 -13.8125 L 22.234375 -13.515625 L 22.140625 -13 L 22 -12.328125 L 21.90625 -12 L 21.953125 -11.71875 L 21.65625 -10.71875 L 21.703125 -10.421875 L 21.609375 -10.09375 L 21.515625 -9.8125 L 21.46875 -9.46875 L 21.328125 -8.8125 L 21.328125 -8.421875 L 21.28125 -8.09375 L 21.140625 -7.421875 L 21 -6.90625 L 20.90625 -6.625 L 20.859375 -5.953125 L 20.8125 -5.1875 L 20.65625 -4.515625 L 20.609375 -4.1875 L 20.515625 -3.578125 L 20.421875 -3.234375 L 20.375 -2.71875 L 20.28125 -2.140625 L 20.140625 -1.90625 L 20.09375 -1.53125 L 20 -1.1875 L 20 -0.8125 L 19.90625 -0.46875 L 19.703125 -0.1875 L 19.140625 -0.046875 L 18.421875 -0.046875 L 18.140625 0 L 17.515625 0.046875 L 16.5625 0.046875 Z M 16.1875 0.09375 "/></g></g></g><g fill="#000000" fill-opacity="1"><g transform="translate(203.443744, 165.409537)"><g><path d="M 0.78125 0 L 0.421875 0 L 0.3125 -0.015625 L 0.25 -0.015625 L 0.171875 -0.03125 L 0.140625 -0.046875 L 0.125 -0.078125 L 0.125 -0.234375 L 0.140625 -0.296875 L 0.140625 -0.34375 L 0.15625 -0.390625 L 0.15625 -0.46875 L 0.1875 -0.71875 L 0.203125 -0.828125 L 0.21875 -0.859375 L 0.265625 -0.890625 L 0.4375 -0.890625 L 0.609375 -0.875 L 0.65625 -0.875 L 0.703125 -0.890625 L 0.75 -0.875 L 0.96875 -0.875 L 1.03125 -0.84375 L 1.078125 -0.796875 L 1.078125 -0.71875 L 1.0625 -0.625 L 1.03125 -0.46875 L 1.015625 -0.359375 L 1.015625 -0.296875 L 1 -0.21875 L 1 -0.140625 L 0.984375 -0.09375 L 0.921875 -0.03125 L 0.828125 0 Z M 0.78125 0 "/></g></g></g><g fill="#000000" fill-opacity="1"><g transform="translate(204.805751, 165.409537)"><g><path d="M 1.3125 0.078125 L 1.265625 0.0625 L 1.171875 0.0625 L 1.109375 0.046875 L 1.03125 0.046875 L 0.96875 0.03125 L 0.921875 0.03125 L 0.890625 0.015625 L 0.8125 -0.015625 L 0.734375 -0.03125 L 0.703125 -0.0625 L 0.640625 -0.109375 L 0.609375 -0.125 L 0.578125 -0.15625 L 0.5 -0.203125 L 0.4375 -0.265625 L 0.40625 -0.359375 L 0.34375 -0.4375 L 0.328125 -0.515625 L 0.3125 -0.546875 L 0.3125 -0.625 L 0.296875 -0.671875 L 0.296875 -0.78125 L 0.28125 -0.828125 L 0.28125 -0.875 L 0.296875 -0.921875 L 0.296875 -1.203125 L 0.3125 -1.25 L 0.3125 -1.34375 L 0.328125 -1.421875 L 0.328125 -1.5 L 0.34375 -1.625 L 0.359375 -1.703125 L 0.359375 -1.765625 L 0.375 -1.8125 L 0.390625 -1.875 L 0.390625 -1.90625 L 0.40625 -2.015625 L 0.421875 -2.046875 L 0.421875 -2.140625 L 0.4375 -2.15625 L 0.4375 -2.171875 L 0.453125 -2.25 L 0.484375 -2.375 L 0.484375 -2.484375 L 0.5 -2.515625 L 0.5 -2.59375 L 0.53125 -2.71875 L 0.546875 -2.765625 L 0.5625 -2.828125 L 0.5625 -2.890625 L 0.578125 -2.921875 L 0.59375 -2.96875 L 0.59375 -3 L 0.609375 -3.046875 L 0.609375 -3.078125 L 0.625 -3.125 L 0.640625 -3.203125 L 0.6875 -3.328125 L 0.71875 -3.4375 L 0.78125 -3.625 L 0.8125 -3.703125 L 0.859375 -3.78125 L 0.875 -3.859375 L 0.921875 -3.890625 L 0.953125 -3.953125 L 1.125 -4.125 L 1.203125 -4.15625 L 1.234375 -4.171875 L 1.375 -4.234375 L 1.46875 -4.25 L 1.546875 -4.265625 L 1.6875 -4.265625 L 1.796875 -4.28125 L 1.890625 -4.28125 L 2.046875 -4.265625 L 2.09375 -4.234375 L 2.234375 -4.234375 L 2.28125 -4.21875 L 2.3125 -4.21875 L 2.359375 -4.203125 L 2.375 -4.1875 L 2.453125 -4.171875 L 2.53125 -4.140625 L 2.609375 -4.09375 L 2.671875 -4.03125 L 2.78125 -3.8125 L 2.796875 -3.75 L 2.796875 -3.59375 L 2.8125 -3.546875 L 2.8125 -3.265625 L 2.796875 -3.203125 L 2.78125 -3.125 L 2.765625 -3.03125 L 2.734375 -2.796875 L 2.71875 -2.734375 L 2.6875 -2.59375 L 2.671875 -2.5625 L 2.59375 -2.5625 L 2.515625 -2.546875 L 2.140625 -2.5625 L 1.96875 -2.578125 L 1.921875 -2.640625 L 1.921875 -2.734375 L 1.9375 -2.765625 L 1.953125 -2.875 L 1.96875 -2.96875 L 2 -3.09375 L 2.015625 -3.171875 L 2.015625 -3.34375 L 1.984375 -3.453125 L 1.921875 -3.484375 L 1.84375 -3.515625 L 1.765625 -3.515625 L 1.703125 -3.5 L 1.625 -3.484375 L 1.578125 -3.40625 L 1.546875 -3.34375 L 1.515625 -3.234375 L 1.484375 -3.15625 L 1.453125 -3.046875 L 1.453125 -3.015625 L 1.421875 -2.953125 L 1.40625 -2.859375 L 1.390625 -2.78125 L 1.375 -2.734375 L 1.375 -2.6875 L 1.359375 -2.65625 L 1.34375 -2.609375 L 1.34375 -2.53125 L 1.3125 -2.4375 L 1.265625 -2.203125 L 1.25 -2.140625 L 1.234375 -2.046875 L 1.21875 -2.015625 L 1.21875 -1.9375 L 1.203125 -1.890625 L 1.1875 -1.796875 L 1.1875 -1.671875 L 1.15625 -1.625 L 1.15625 -1.5 L 1.140625 -1.453125 L 1.140625 -1.40625 L 1.125 -1.28125 L 1.125 -1.234375 L 1.109375 -1.15625 L 1.109375 -0.9375 L 1.140625 -0.84375 L 1.1875 -0.796875 L 1.265625 -0.765625 L 1.375 -0.78125 L 1.453125 -0.78125 L 1.546875 -0.828125 L 1.5625 -0.859375 L 1.609375 -0.96875 L 1.640625 -1.0625 L 1.671875 -1.140625 L 1.671875 -1.171875 L 1.6875 -1.203125 L 1.703125 -1.265625 L 1.71875 -1.359375 L 1.734375 -1.421875 L 1.734375 -1.453125 L 1.765625 -1.53125 L 1.78125 -1.59375 L 1.8125 -1.640625 L 1.859375 -1.65625 L 2.015625 -1.640625 L 2.140625 -1.640625 L 2.4375 -1.625 L 2.515625 -1.625 L 2.5625 -1.578125 L 2.578125 -1.53125 L 2.578125 -1.46875 L 2.5625 -1.4375 L 2.5625 -1.3125 L 2.546875 -1.25 L 2.53125 -1.21875 L 2.53125 -1.15625 L 2.515625 -1.03125 L 2.453125 -0.84375 L 2.4375 -0.765625 L 2.4375 -0.71875 L 2.421875 -0.6875 L 2.375 -0.546875 L 2.34375 -0.484375 L 2.328125 -0.4375 L 2.296875 -0.40625 L 2.265625 -0.359375 L 2.234375 -0.296875 L 2.140625 -0.1875 L 2.0625 -0.109375 L 1.96875 -0.046875 L 1.921875 -0.03125 L 1.765625 0 L 1.6875 0.03125 L 1.625 0.03125 L 1.546875 0.046875 L 1.453125 0.046875 L 1.375 0.0625 Z M 1.3125 0.078125 "/></g></g></g><g fill="#000000" fill-opacity="1"><g transform="translate(207.421771, 165.409537)"><g><path d="M 1.453125 0.09375 L 1.296875 0.078125 L 1.125 0.078125 L 0.984375 0.03125 L 0.9375 0.03125 L 0.84375 0 L 0.796875 -0.03125 L 0.71875 -0.078125 L 0.609375 -0.171875 L 0.53125 -0.265625 L 0.515625 -0.296875 L 0.484375 -0.328125 L 0.46875 -0.359375 L 0.4375 -0.40625 L 0.390625 -0.484375 L 0.390625 -0.515625 L 0.359375 -0.5625 L 0.359375 -0.59375 L 0.34375 -0.625 L 0.34375 -0.65625 L 0.328125 -0.703125 L 0.3125 -0.734375 L 0.3125 -0.859375 L 0.28125 -0.984375 L 0.296875 -1.015625 L 0.296875 -1.140625 L 0.3125 -1.1875 L 0.3125 -1.28125 L 0.328125 -1.421875 L 0.34375 -1.5 L 0.34375 -1.546875 L 0.359375 -1.625 L 0.359375 -1.671875 L 0.390625 -1.765625 L 0.375 -1.78125 L 0.390625 -1.859375 L 0.390625 -1.90625 L 0.40625 -2.015625 L 0.4375 -2.09375 L 0.4375 -2.171875 L 0.453125 -2.234375 L 0.453125 -2.28125 L 0.46875 -2.3125 L 0.484375 -2.359375 L 0.484375 -2.46875 L 0.515625 -2.53125 L 0.53125 -2.578125 L 0.53125 -2.65625 L 0.546875 -2.734375 L 0.5625 -2.765625 L 0.5625 -2.8125 L 0.609375 -3.046875 L 0.640625 -3.078125 L 0.640625 -3.15625 L 0.6875 -3.234375 L 0.703125 -3.28125 L 0.71875 -3.359375 L 0.75 -3.4375 L 0.796875 -3.515625 L 0.8125 -3.546875 L 0.875 -3.625 L 0.875 -3.671875 L 0.90625 -3.703125 L 1 -3.859375 L 1.15625 -4.015625 L 1.234375 -4.0625 L 1.28125 -4.09375 L 1.3125 -4.109375 L 1.390625 -4.15625 L 1.546875 -4.21875 L 1.59375 -4.21875 L 1.6875 -4.25 L 1.734375 -4.25 L 1.84375 -4.265625 L 1.9375 -4.28125 L 2.109375 -4.28125 L 2.140625 -4.265625 L 2.21875 -4.265625 L 2.3125 -4.25 L 2.359375 -4.234375 L 2.40625 -4.234375 L 2.53125 -4.171875 L 2.640625 -4.109375 L 2.6875 -4.078125 L 2.71875 -4.03125 L 2.78125 -3.984375 L 2.875 -3.890625 L 2.890625 -3.84375 L 2.9375 -3.765625 L 2.96875 -3.703125 L 2.96875 -3.65625 L 3 -3.5625 L 3 -3.453125 L 3.015625 -3.40625 L 3.015625 -3.359375 L 3 -3.28125 L 3 -3.046875 L 2.984375 -3 L 2.984375 -2.828125 L 2.96875 -2.75 L 2.96875 -2.65625 L 2.953125 -2.5625 L 2.953125 -2.515625 L 2.9375 -2.421875 L 2.9375 -2.359375 L 2.90625 -2.296875 L 2.921875 -2.21875 L 2.890625 -2.140625 L 2.859375 -1.984375 L 2.859375 -1.921875 L 2.84375 -1.84375 L 2.8125 -1.8125 L 2.796875 -1.703125 L 2.796875 -1.609375 L 2.78125 -1.515625 L 2.765625 -1.484375 L 2.703125 -1.265625 L 2.703125 -1.234375 L 2.671875 -1.15625 L 2.65625 -1.125 L 2.65625 -1.0625 L 2.625 -1 L 2.609375 -0.921875 L 2.609375 -0.875 L 2.59375 -0.8125 L 2.5625 -0.78125 L 2.546875 -0.71875 L 2.515625 -0.625 L 2.453125 -0.515625 L 2.4375 -0.484375 L 2.375 -0.40625 L 2.359375 -0.359375 L 2.328125 -0.328125 L 2.3125 -0.296875 L 2.171875 -0.15625 L 2.09375 -0.109375 L 2.03125 -0.046875 L 2 -0.03125 L 1.859375 0.015625 L 1.828125 0.03125 L 1.78125 0.03125 L 1.6875 0.046875 L 1.65625 0.0625 L 1.578125 0.078125 Z M 1.40625 -0.71875 L 1.484375 -0.71875 L 1.5625 -0.75 L 1.625 -0.765625 L 1.703125 -0.828125 L 1.75 -0.90625 L 1.78125 -1 L 1.796875 -1.03125 L 1.796875 -1.09375 L 1.8125 -1.171875 L 1.828125 -1.21875 L 1.84375 -1.296875 L 1.859375 -1.34375 L 1.859375 -1.4375 L 1.875 -1.46875 L 1.890625 -1.546875 L 1.90625 -1.609375 L 1.921875 -1.640625 L 1.921875 -1.6875 L 1.90625 -1.703125 L 1.9375 -1.765625 L 1.953125 -1.84375 L 1.96875 -1.984375 L 1.984375 -2.046875 L 2 -2.09375 L 2.015625 -2.203125 L 2.03125 -2.234375 L 2.015625 -2.34375 L 2.046875 -2.4375 L 2.0625 -2.5 L 2.0625 -2.546875 L 2.078125 -2.59375 L 2.078125 -2.71875 L 2.09375 -2.765625 L 2.109375 -2.84375 L 2.125 -2.890625 L 2.125 -2.96875 L 2.140625 -3.078125 L 2.140625 -3.15625 L 2.15625 -3.25 L 2.125 -3.359375 L 2.109375 -3.40625 L 2.0625 -3.453125 L 1.96875 -3.5 L 1.859375 -3.484375 L 1.8125 -3.484375 L 1.703125 -3.4375 L 1.65625 -3.390625 L 1.609375 -3.328125 L 1.578125 -3.25 L 1.5625 -3.203125 L 1.53125 -3.125 L 1.515625 -3.09375 L 1.5 -3.046875 L 1.46875 -2.921875 L 1.46875 -2.90625 L 1.453125 -2.859375 L 1.4375 -2.765625 L 1.4375 -2.734375 L 1.40625 -2.65625 L 1.375 -2.46875 L 1.375 -2.4375 L 1.359375 -2.390625 L 1.34375 -2.296875 L 1.296875 -2.15625 L 1.296875 -2.109375 L 1.28125 -2.03125 L 1.28125 -1.984375 L 1.265625 -1.9375 L 1.28125 -1.890625 L 1.265625 -1.859375 L 1.234375 -1.765625 L 1.234375 -1.71875 L 1.21875 -1.6875 L 1.234375 -1.65625 L 1.21875 -1.609375 L 1.21875 -1.546875 L 1.203125 -1.515625 L 1.203125 -1.46875 L 1.1875 -1.375 L 1.1875 -1.328125 L 1.171875 -1.296875 L 1.1875 -1.25 L 1.1875 -1.171875 L 1.15625 -1.109375 L 1.171875 -1.078125 L 1.171875 -0.90625 L 1.1875 -0.859375 L 1.203125 -0.84375 L 1.234375 -0.78125 L 1.265625 -0.75 L 1.3125 -0.734375 L 1.375 -0.71875 Z M 1.40625 -0.71875 "/></g></g></g><g fill="#000000" fill-opacity="1"><g transform="translate(210.33179, 165.409537)"><g><path d="M 0.703125 0.015625 L 0.53125 0 L 0.28125 0 L 0.265625 -0.03125 L 0.234375 -0.0625 L 0.234375 -0.1875 L 0.25 -0.234375 L 0.234375 -0.28125 L 0.25 -0.34375 L 0.265625 -0.375 L 0.265625 -0.453125 L 0.28125 -0.515625 L 0.296875 -0.59375 L 0.3125 -0.640625 L 0.328125 -0.71875 L 0.328125 -0.8125 L 0.359375 -0.90625 L 0.359375 -0.984375 L 0.375 -1.0625 L 0.390625 -1.109375 L 0.390625 -1.15625 L 0.40625 -1.203125 L 0.40625 -1.28125 L 0.421875 -1.3125 L 0.4375 -1.40625 L 0.4375 -1.5 L 0.46875 -1.59375 L 0.46875 -1.734375 L 0.5 -1.84375 L 0.5 -1.90625 L 0.515625 -1.9375 L 0.53125 -2.015625 L 0.515625 -2.046875 L 0.546875 -2.09375 L 0.546875 -2.140625 L 0.5625 -2.21875 L 0.5625 -2.328125 L 0.578125 -2.375 L 0.59375 -2.40625 L 0.59375 -2.484375 L 0.609375 -2.53125 L 0.625 -2.5625 L 0.640625 -2.640625 L 0.640625 -2.71875 L 0.65625 -2.796875 L 0.671875 -2.828125 L 0.6875 -2.921875 L 0.6875 -2.953125 L 0.703125 -3.03125 L 0.703125 -3.078125 L 0.71875 -3.15625 L 0.734375 -3.203125 L 0.75 -3.234375 L 0.75 -3.3125 L 0.796875 -3.5 L 0.796875 -3.609375 L 0.8125 -3.6875 L 0.828125 -3.75 L 0.828125 -3.796875 L 0.859375 -3.875 L 0.84375 -3.921875 L 0.859375 -3.953125 L 0.859375 -4.03125 L 0.890625 -4.078125 L 0.890625 -4.125 L 0.921875 -4.1875 L 0.984375 -4.203125 L 1.6875 -4.203125 L 1.734375 -4.140625 L 1.75 -3.984375 L 1.765625 -3.9375 L 1.765625 -3.859375 L 1.78125 -3.8125 L 1.796875 -3.734375 L 1.796875 -3.625 L 1.8125 -3.53125 L 1.84375 -3.375 L 1.84375 -3.28125 L 1.875 -3.15625 L 1.875 -3.125 L 1.890625 -3.03125 L 1.890625 -2.953125 L 1.90625 -2.921875 L 1.921875 -2.84375 L 1.921875 -2.71875 L 1.9375 -2.640625 L 1.9375 -2.59375 L 1.96875 -2.515625 L 1.984375 -2.3125 L 2.015625 -2.21875 L 2.015625 -2.109375 L 2.03125 -2.0625 L 2.046875 -1.984375 L 2.0625 -1.875 L 2.078125 -1.875 L 2.171875 -2.0625 L 2.203125 -2.09375 L 2.25 -2.1875 L 2.265625 -2.234375 L 2.3125 -2.3125 L 2.34375 -2.375 L 2.390625 -2.4375 L 2.390625 -2.46875 L 2.4375 -2.5625 L 2.46875 -2.609375 L 2.484375 -2.671875 L 2.53125 -2.75 L 2.5625 -2.78125 L 2.59375 -2.859375 L 2.640625 -2.9375 L 2.671875 -2.96875 L 2.671875 -3 L 2.734375 -3.09375 L 2.875 -3.375 L 2.96875 -3.546875 L 3 -3.625 L 3.046875 -3.703125 L 3.09375 -3.765625 L 3.125 -3.84375 L 3.15625 -3.875 L 3.1875 -3.9375 L 3.1875 -3.96875 L 3.203125 -4 L 3.234375 -4.078125 L 3.28125 -4.140625 L 3.3125 -4.1875 L 3.453125 -4.203125 L 3.703125 -4.203125 L 3.90625 -4.1875 L 4.015625 -4.203125 L 4.078125 -4.15625 L 4.09375 -4.125 L 4.0625 -4.046875 L 4.0625 -4.015625 L 4.046875 -3.921875 L 4.046875 -3.90625 L 4.03125 -3.859375 L 4.03125 -3.78125 L 4.015625 -3.765625 L 4.015625 -3.640625 L 4 -3.59375 L 3.96875 -3.515625 L 3.96875 -3.46875 L 3.953125 -3.390625 L 3.9375 -3.359375 L 3.9375 -3.25 L 3.921875 -3.203125 L 3.921875 -3.109375 L 3.90625 -3.0625 L 3.875 -2.984375 L 3.859375 -2.953125 L 3.859375 -2.875 L 3.84375 -2.765625 L 3.8125 -2.671875 L 3.8125 -2.59375 L 3.796875 -2.5625 L 3.78125 -2.484375 L 3.765625 -2.390625 L 3.75 -2.328125 L 3.75 -2.28125 L 3.734375 -2.25 L 3.71875 -2.171875 L 3.71875 -2.109375 L 3.703125 -2.015625 L 3.6875 -1.96875 L 3.6875 -1.859375 L 3.671875 -1.8125 L 3.671875 -1.78125 L 3.65625 -1.703125 L 3.625 -1.65625 L 3.640625 -1.609375 L 3.625 -1.515625 L 3.609375 -1.4375 L 3.609375 -1.390625 L 3.59375 -1.3125 L 3.5625 -1.234375 L 3.5625 -1.1875 L 3.546875 -1.09375 L 3.546875 -1.0625 L 3.53125 -1.015625 L 3.515625 -0.921875 L 3.515625 -0.890625 L 3.5 -0.796875 L 3.484375 -0.75 L 3.46875 -0.671875 L 3.46875 -0.640625 L 3.453125 -0.59375 L 3.453125 -0.515625 L 3.4375 -0.484375 L 3.4375 -0.4375 L 3.421875 -0.359375 L 3.421875 -0.3125 L 3.375 -0.078125 L 3.359375 -0.015625 L 3.265625 0 L 2.609375 0 L 2.5625 -0.03125 L 2.546875 -0.09375 L 2.546875 -0.171875 L 2.5625 -0.265625 L 2.578125 -0.296875 L 2.59375 -0.390625 L 2.59375 -0.4375 L 2.609375 -0.515625 L 2.640625 -0.703125 L 2.671875 -0.859375 L 2.6875 -0.921875 L 2.71875 -1 L 2.71875 -1.15625 L 2.734375 -1.203125 L 2.75 -1.28125 L 2.75 -1.3125 L 2.765625 -1.359375 L 2.78125 -1.421875 L 2.78125 -1.5 L 2.796875 -1.546875 L 2.84375 -1.78125 L 2.859375 -1.890625 L 2.875 -1.96875 L 2.890625 -2 L 2.890625 -2.046875 L 2.921875 -2.1875 L 2.90625 -2.1875 L 2.71875 -1.84375 L 2.59375 -1.53125 L 2.515625 -1.34375 L 2.375 -1.109375 L 2.21875 -0.75 L 2.171875 -0.671875 L 2.140625 -0.625 L 2.078125 -0.609375 L 2.046875 -0.609375 L 1.984375 -0.625 L 1.859375 -0.609375 L 1.734375 -0.625 L 1.6875 -0.625 L 1.609375 -0.671875 L 1.609375 -0.703125 L 1.578125 -0.8125 L 1.578125 -0.859375 L 1.546875 -0.953125 L 1.546875 -0.984375 L 1.53125 -1.03125 L 1.53125 -1.140625 L 1.515625 -1.265625 L 1.5 -1.296875 L 1.46875 -1.453125 L 1.4375 -1.703125 L 1.421875 -1.84375 L 1.40625 -1.921875 L 1.40625 -1.96875 L 1.390625 -2 L 1.375 -2.28125 L 1.34375 -2.28125 L 1.3125 -2.03125 L 1.3125 -1.96875 L 1.265625 -1.640625 L 1.265625 -1.609375 L 1.25 -1.5625 L 1.25 -1.40625 L 1.234375 -1.328125 L 1.234375 -1.296875 L 1.21875 -1.25 L 1.1875 -1.09375 L 1.1875 -0.96875 L 1.171875 -0.890625 L 1.171875 -0.859375 L 1.15625 -0.78125 L 1.140625 -0.734375 L 1.140625 -0.671875 L 1.125 -0.578125 L 1.109375 -0.5 L 1.109375 -0.46875 L 1.09375 -0.390625 L 1.09375 -0.234375 L 1.0625 -0.1875 L 1.0625 -0.09375 L 1.015625 -0.03125 L 0.953125 0 L 0.734375 0 Z M 0.703125 0.015625 "/></g></g></g></svg>